<svg width="158" height="64" viewBox="0 0 158 64" fill="none" xmlns="http://www.w3.org/2000/svg">
<g filter="url(#filter0_di_83_17)">
<path d="M78 57.3677C119.12 57.3677 152.454 57.3677 152.454 30.3677C152.454 3.36768 119.12 3.36768 78 3.36768C36.8798 3.36768 3.54541 3.36768 3.54541 30.3677C3.54541 57.3677 36.8798 57.3677 78 57.3677Z" fill="#FD7B9F"/>
<path d="M78 57.3677C119.12 57.3677 152.454 57.3677 152.454 30.3677C152.454 3.36768 119.12 3.36768 78 3.36768C36.8798 3.36768 3.54541 3.36768 3.54541 30.3677C3.54541 57.3677 36.8798 57.3677 78 57.3677Z" fill="url(#paint0_linear_83_17)"/>
<path d="M78 57.3677C119.12 57.3677 152.454 57.3677 152.454 30.3677C152.454 3.36768 119.12 3.36768 78 3.36768C36.8798 3.36768 3.54541 3.36768 3.54541 30.3677C3.54541 57.3677 36.8798 57.3677 78 57.3677Z" stroke="#E4648B" stroke-width="2.45455"/>
</g>
<defs>
<filter id="filter0_di_83_17" x="0.14321" y="0.97706" width="157.737" height="63.3452" filterUnits="userSpaceOnUse" color-interpolation-filters="sRGB">
<feFlood flood-opacity="0" result="BackgroundImageFix"/>
<feColorMatrix in="SourceAlpha" type="matrix" values="0 0 0 0 0 0 0 0 0 0 0 0 0 0 0 0 0 0 127 0" result="hardAlpha"/>
<feMorphology radius="0.505792" operator="dilate" in="SourceAlpha" result="effect1_dropShadow_83_17"/>
<feOffset dx="1.01158" dy="2.02317"/>
<feGaussianBlur stdDeviation="1.34035"/>
<feComposite in2="hardAlpha" operator="out"/>
<feColorMatrix type="matrix" values="0 0 0 0 0.645833 0 0 0 0 0.161458 0 0 0 0 0.307685 0 0 0 0.5 0"/>
<feBlend mode="normal" in2="BackgroundImageFix" result="effect1_dropShadow_83_17"/>
<feBlend mode="normal" in="SourceGraphic" in2="effect1_dropShadow_83_17" result="shape"/>
<feColorMatrix in="SourceAlpha" type="matrix" values="0 0 0 0 0 0 0 0 0 0 0 0 0 0 0 0 0 0 127 0" result="hardAlpha"/>
<feMorphology radius="1.51738" operator="erode" in="SourceAlpha" result="effect2_innerShadow_83_17"/>
<feOffset dy="5.72727"/>
<feGaussianBlur stdDeviation="5.23636"/>
<feComposite in2="hardAlpha" operator="arithmetic" k2="-1" k3="1"/>
<feColorMatrix type="matrix" values="0 0 0 0 1 0 0 0 0 1 0 0 0 0 1 0 0 0 0.75 0"/>
<feBlend mode="normal" in2="shape" result="effect2_innerShadow_83_17"/>
</filter>
<linearGradient id="paint0_linear_83_17" x1="78" y1="57.3677" x2="78" y2="3.36768" gradientUnits="userSpaceOnUse">
<stop stop-color="#FFB3D2" stop-opacity="0"/>
<stop offset="0.835" stop-color="#FFC1DB"/>
</linearGradient>
</defs>
</svg>
