<svg width="209" height="54" viewBox="0 0 209 54" fill="none" xmlns="http://www.w3.org/2000/svg">
<g filter="url(#filter0_di_42_43)">
<rect x="3" y="2" width="200.128" height="45" rx="22.5" fill="#FE5A87"/>
<rect x="3" y="2" width="200.128" height="45" rx="22.5" fill="url(#paint0_linear_42_43)"/>
<rect x="3" y="2" width="200.128" height="45" rx="22.5" fill="url(#paint1_radial_42_43)" fill-opacity="0.8"/>
<rect x="3.92729" y="2.92729" width="198.274" height="43.1454" rx="21.5727" stroke="#E4648B" stroke-width="1.85457"/>
<path d="M45.4587 33.1731C45.096 33.1731 44.7745 33.0659 44.4943 32.8516C44.214 32.6208 43.9997 32.3076 43.8514 31.912C43.7195 31.5163 43.6865 31.0712 43.7525 30.5767C43.8349 30.0821 44.0574 29.5629 44.4201 29.0189C45.0465 28.1122 45.673 27.2302 46.2994 26.373C46.9423 25.4993 47.577 24.6586 48.2034 23.8508C48.8299 23.043 49.4398 22.2765 50.0333 21.5511C50.6267 20.8093 51.2037 20.1334 51.7642 19.5235C52.3247 18.897 52.8357 18.3283 53.2973 17.8173C53.7754 17.3062 54.204 16.8694 54.5831 16.5067C54.9623 16.1275 55.2838 15.872 55.5475 15.7401C55.8278 15.5918 56.1492 15.5176 56.5119 15.5176C56.8911 15.5176 57.2372 15.633 57.5505 15.8638C57.8637 16.0946 58.0945 16.4078 58.2428 16.8034C58.3912 17.1826 58.4242 17.5947 58.3417 18.0398C58.2758 18.4684 58.0285 18.9053 57.5999 19.3504C56.99 19.9768 56.3223 20.6774 55.597 21.4522C54.8716 22.2105 54.1216 23.0183 53.3468 23.8755C52.5885 24.7163 51.8384 25.59 51.0966 26.4966C50.3712 27.3868 49.6788 28.2853 49.0194 29.1919C48.3765 30.0986 47.8078 30.9806 47.3132 31.8378C47.033 32.3324 46.761 32.6785 46.4972 32.8764C46.2499 33.0742 45.9038 33.1731 45.4587 33.1731ZM56.3883 33.272C55.9432 33.272 55.531 33.1401 55.1519 32.8764C54.7727 32.6126 54.3853 32.1428 53.9897 31.4669C53.6105 30.791 53.0748 30.0739 52.3824 29.3156C51.7065 28.5408 50.9564 27.7413 50.1322 26.917C49.3079 26.0763 48.4837 25.219 47.6594 24.3453C46.8516 23.4716 46.1263 22.6144 45.4834 21.7737C44.8405 20.9164 44.3542 20.084 44.0245 19.2762C43.7112 18.4354 43.5629 17.7348 43.5794 17.1743C43.5958 16.5974 43.7607 16.1605 44.0739 15.8638C44.4036 15.567 44.8817 15.4187 45.5081 15.4187C46.0356 15.4022 46.4807 15.5341 46.8434 15.8143C47.2226 16.0946 47.5275 16.5397 47.7583 17.1496C48.2199 18.2871 48.7722 19.3256 49.4151 20.2653C50.0745 21.2049 50.7751 22.0704 51.5169 22.8617C52.2588 23.6365 52.9841 24.3618 53.693 25.0377C54.4183 25.7136 55.0942 26.373 55.7206 27.0159C56.347 27.6588 56.8746 28.31 57.3032 28.9694C57.8637 29.8431 58.1604 30.6014 58.1934 31.2443C58.2263 31.8873 58.0697 32.3901 57.7236 32.7527C57.3938 33.0989 56.9488 33.272 56.3883 33.272ZM63.4849 33.2473C62.9903 33.2473 62.5947 33.1401 62.298 32.9258C62.0012 32.7115 61.7787 32.423 61.6303 32.0604C61.4984 31.6812 61.4325 31.2608 61.4325 30.7992C61.4325 29.7277 61.4243 28.8293 61.4078 28.1039C61.3913 27.3621 61.3748 26.7192 61.3583 26.1752C61.3583 25.6312 61.3501 25.1201 61.3336 24.6421C61.3171 24.164 61.3089 23.653 61.3089 23.109C61.3089 22.5979 61.3913 22.1281 61.5561 21.6995C61.721 21.2709 61.9847 20.9329 62.3474 20.6857C62.7266 20.4384 63.2046 20.3147 63.7816 20.3147C64.3586 20.3147 64.8119 20.5043 65.1416 20.8835C65.4713 21.2461 65.6444 21.8149 65.6609 22.5897C65.6609 22.9194 65.6527 23.3727 65.6362 23.9497C65.6362 24.5267 65.6197 25.1696 65.5867 25.8785C65.5702 26.5708 65.5455 27.2714 65.5126 27.9803C65.4961 28.6727 65.4796 29.3156 65.4631 29.9091C65.4466 30.5025 65.4384 30.9806 65.4384 31.3433C65.4384 31.8873 65.2818 32.3406 64.9685 32.7033C64.6553 33.0659 64.1608 33.2473 63.4849 33.2473ZM63.7816 18.7322C62.9409 18.7322 62.2568 18.5179 61.7292 18.0893C61.2182 17.6442 60.9627 17.1084 60.9627 16.482C60.9627 15.8061 61.1935 15.2868 61.655 14.9241C62.1166 14.5615 62.7018 14.3801 63.4107 14.3801C63.9712 14.3801 64.441 14.5038 64.8202 14.751C65.1993 14.9983 65.4878 15.3033 65.6856 15.666C65.8835 16.0286 65.9824 16.3913 65.9824 16.754C65.9824 17.232 65.8093 17.6854 65.4631 18.114C65.1334 18.5261 64.5729 18.7322 63.7816 18.7322ZM76.1089 33.2473C75.1693 33.2473 74.312 33.0742 73.5372 32.728C72.7789 32.3818 72.1772 31.9202 71.7321 31.3433C71.287 30.7663 71.0645 30.1481 71.0645 29.4887C71.0645 29.1919 71.1716 28.9282 71.3859 28.6974C71.6002 28.4666 71.8393 28.3512 72.103 28.3512C72.3668 28.3512 72.6058 28.4172 72.8201 28.549C73.0509 28.6644 73.2817 28.8046 73.5125 28.9694C73.7598 29.1343 74.04 29.2826 74.3532 29.4145C74.6829 29.5299 75.0703 29.5876 75.5154 29.5876C76.2408 29.5876 76.826 29.431 77.2711 29.1178C77.7162 28.8046 77.9387 28.277 77.9387 27.5352C77.9387 26.9582 77.7986 26.4472 77.5184 26.0021C77.2381 25.5405 76.8672 25.1531 76.4056 24.8399C75.9605 24.5267 75.466 24.2959 74.922 24.1475C74.378 23.9827 73.8505 23.9002 73.3394 23.9002C73.1251 23.9002 72.9108 23.925 72.6965 23.9744C72.4987 24.0239 72.2432 24.0486 71.9299 24.0486C71.6167 24.0486 71.3035 23.9662 70.9903 23.8013C70.6771 23.62 70.4216 23.3892 70.2237 23.109C70.0259 22.8122 69.927 22.4908 69.927 22.1446C69.927 21.3698 70.2237 20.8423 70.8172 20.562C71.4107 20.2653 72.2844 20.1169 73.4383 20.1169C74.5923 20.1169 75.6803 20.2983 76.7024 20.6609C77.7244 21.0071 78.6229 21.5264 79.3977 22.2188C80.1725 22.8947 80.7824 23.7272 81.2275 24.7163C81.6726 25.7054 81.8952 26.8346 81.8952 28.1039C81.8952 28.7304 81.755 29.3486 81.4748 29.9585C81.211 30.5685 80.8319 31.1207 80.3373 31.6153C79.8428 32.1098 79.2411 32.5054 78.5322 32.8022C77.8234 33.0989 77.0156 33.2473 76.1089 33.2473ZM71.559 39.4539C71.2458 39.4539 70.9326 39.3715 70.6194 39.2066C70.3226 39.0418 70.0671 38.7863 69.8528 38.4401C69.655 38.0939 69.5561 37.657 69.5561 37.1295C69.5561 36.7833 69.5808 36.4701 69.6303 36.1899C69.6797 35.9261 69.7209 35.6541 69.7539 35.3738C69.8034 35.0936 69.8528 34.7804 69.9023 34.4342C69.9517 34.1045 69.9765 33.6924 69.9765 33.1978C69.9765 31.9614 69.8858 30.791 69.7045 29.6865C69.5231 28.5655 69.3253 27.461 69.111 26.373C68.9132 25.285 68.7731 24.1475 68.6906 22.9606C68.6741 22.5814 68.7813 22.2847 69.0121 22.0704C69.2594 21.8396 69.5726 21.7242 69.9517 21.7242C70.4298 21.7242 70.8749 21.8314 71.287 22.0457C71.7156 22.26 72.0618 22.5402 72.3256 22.8864C72.5893 23.2161 72.7212 23.5953 72.7212 24.0239C72.7212 24.9635 72.7789 25.862 72.8943 26.7192C73.0262 27.5764 73.1663 28.4089 73.3147 29.2167C73.4631 30.008 73.5949 30.8075 73.7103 31.6153C73.8422 32.423 73.9082 33.2638 73.9082 34.1375C73.9082 34.7969 73.8752 35.4398 73.8092 36.0662C73.7598 36.6927 73.6526 37.2614 73.4878 37.7724C73.3394 38.2835 73.1086 38.6873 72.7954 38.9841C72.4987 39.2973 72.0866 39.4539 71.559 39.4539ZM88.5803 33.2473C87.7231 33.2473 86.973 33.0907 86.3301 32.7775C85.6872 32.4478 85.1844 31.9944 84.8217 31.4174C84.459 30.824 84.2777 30.1398 84.2777 29.365C84.2777 28.5243 84.4178 27.6671 84.6981 26.7934C84.9783 25.9197 85.3657 25.0872 85.8603 24.2959C86.3548 23.5046 86.9236 22.7957 87.5665 22.1693C88.2259 21.5429 88.9265 21.0483 89.6683 20.6857C90.4102 20.323 91.1602 20.1416 91.9185 20.1416C92.5285 20.1416 93.0478 20.3395 93.4764 20.7351C93.905 21.1308 94.1193 21.6912 94.1193 22.4166C94.1193 22.6803 94.0451 22.8864 93.8967 23.0348C93.7484 23.1831 93.5588 23.2821 93.328 23.3315C92.273 23.4964 91.3416 23.9085 90.5338 24.5679C89.726 25.2108 89.0913 25.9856 88.6298 26.8923C88.1682 27.7825 87.9374 28.7139 87.9374 29.6865C87.9374 29.9667 87.9539 30.2305 87.9868 30.4778C88.0363 30.7086 88.127 31.0053 88.2589 31.368L86.5774 28.8458C86.973 29.1425 87.3192 29.3486 87.6159 29.464C87.9291 29.5629 88.2918 29.6123 88.7039 29.6123C89.5447 29.6123 90.3277 29.093 91.0531 28.0545C91.7784 26.9994 92.2977 25.4581 92.6109 23.4304C92.6604 23.0348 92.8335 22.7298 93.1302 22.5155C93.4269 22.2847 93.7649 22.1693 94.144 22.1693C94.7869 22.1693 95.3309 22.3424 95.776 22.6886C96.2211 23.0348 96.5344 23.4634 96.7157 23.9744C96.9959 24.7327 97.2515 25.4416 97.4822 26.101C97.7295 26.7439 98.018 27.3703 98.3477 27.9803C98.6939 28.5738 99.1555 29.1919 99.7325 29.8349C99.9468 30.0821 100.054 30.3954 100.054 30.7745C100.07 31.1372 100.004 31.5081 99.8561 31.8873C99.7077 32.2499 99.4852 32.5549 99.1884 32.8022C98.9082 33.0495 98.562 33.1731 98.1499 33.1731C97.8532 33.1731 97.6141 33.1154 97.4328 33C97.2515 32.9011 97.0948 32.7692 96.963 32.6044C96.6003 32.1757 96.2788 31.7554 95.9986 31.3433C95.7183 30.9146 95.4546 30.4695 95.2073 30.008C94.9765 29.5299 94.754 29.0024 94.5397 28.4254C94.3418 27.8319 94.1358 27.1478 93.9215 26.373L95.232 26.2741C94.9188 27.5929 94.5149 28.6974 94.0204 29.5876C93.5258 30.4778 92.9818 31.1949 92.3884 31.7389C91.8114 32.2829 91.1932 32.6703 90.5338 32.9011C89.8909 33.1319 89.2397 33.2473 88.5803 33.2473ZM104.495 33.2473C103.918 33.2473 103.457 33.033 103.111 32.6044C102.781 32.1757 102.583 31.6647 102.517 31.0712C102.484 30.791 102.451 30.4201 102.418 29.9585C102.402 29.4969 102.385 28.9941 102.369 28.4501C102.352 27.8896 102.344 27.3374 102.344 26.7934C102.344 26.2494 102.336 25.7466 102.319 25.285C102.319 24.8069 102.319 24.4113 102.319 24.0981C102.319 23.0595 102.443 22.2188 102.69 21.5758C102.954 20.9164 103.44 20.5208 104.149 20.3889C104.397 20.3395 104.652 20.3065 104.916 20.29C105.18 20.2735 105.435 20.2653 105.682 20.2653C106.094 20.2653 106.515 20.29 106.943 20.3395C107.389 20.3724 107.801 20.4137 108.18 20.4631C108.575 20.5126 108.922 20.5373 109.218 20.5373C109.334 20.5373 109.4 20.4137 109.416 20.1664C109.433 19.9026 109.424 19.5976 109.391 19.2515C109.359 18.8888 109.334 18.5426 109.317 18.2129C109.317 17.8832 109.35 17.6359 109.416 17.4711C109.532 17.1908 109.729 16.9848 110.01 16.8529C110.29 16.7045 110.611 16.6303 110.974 16.6303C111.37 16.6303 111.708 16.7292 111.988 16.9271C112.285 17.1084 112.491 17.3309 112.606 17.5947C112.688 17.776 112.771 18.0151 112.853 18.3118C112.936 18.5921 113.002 18.9135 113.051 19.2762C113.117 19.6224 113.167 19.9933 113.2 20.3889C113.233 20.7846 113.249 21.1802 113.249 21.5758C113.249 22.2517 113.043 22.8205 112.631 23.2821C112.235 23.7436 111.675 23.9744 110.949 23.9744C110.603 23.9744 110.207 23.9497 109.762 23.9002C109.334 23.8343 108.889 23.7766 108.427 23.7271C107.982 23.6612 107.545 23.6282 107.117 23.6282C106.688 23.6282 106.342 23.6447 106.078 23.6777C105.814 23.7107 105.567 23.7601 105.336 23.8261C105.105 23.892 104.792 23.9662 104.397 24.0486L106.202 22.6144C106.169 23.0265 106.136 23.4881 106.103 23.9992C106.07 24.4937 106.045 25.0295 106.029 25.6064C106.012 26.1669 106.004 26.7686 106.004 27.4116C106.004 28.005 106.02 28.5985 106.053 29.1919C106.086 29.7854 106.111 30.3294 106.127 30.824C106.16 31.302 106.177 31.673 106.177 31.9367C106.177 32.3818 106.012 32.7115 105.682 32.9258C105.353 33.1401 104.957 33.2473 104.495 33.2473ZM117.726 33.2473C116.869 33.2473 116.119 33.0907 115.476 32.7775C114.833 32.4478 114.33 31.9944 113.967 31.4174C113.605 30.824 113.423 30.1398 113.423 29.365C113.423 28.5243 113.564 27.6671 113.844 26.7934C114.124 25.9197 114.511 25.0872 115.006 24.2959C115.501 23.5046 116.069 22.7957 116.712 22.1693C117.372 21.5429 118.072 21.0483 118.814 20.6857C119.556 20.323 120.306 20.1416 121.064 20.1416C121.674 20.1416 122.193 20.3395 122.622 20.7351C123.051 21.1308 123.265 21.6912 123.265 22.4166C123.265 22.6803 123.191 22.8864 123.042 23.0348C122.894 23.1831 122.705 23.2821 122.474 23.3315C121.419 23.4964 120.487 23.9085 119.68 24.5679C118.872 25.2108 118.237 25.9856 117.775 26.8923C117.314 27.7825 117.083 28.7139 117.083 29.6865C117.083 29.9667 117.1 30.2305 117.133 30.4778C117.182 30.7086 117.273 31.0053 117.405 31.368L115.723 28.8458C116.119 29.1425 116.465 29.3486 116.762 29.464C117.075 29.5629 117.438 29.6123 117.85 29.6123C118.69 29.6123 119.473 29.093 120.199 28.0545C120.924 26.9994 121.443 25.4581 121.757 23.4304C121.806 23.0348 121.979 22.7298 122.276 22.5155C122.573 22.2847 122.911 22.1693 123.29 22.1693C123.933 22.1693 124.477 22.3424 124.922 22.6886C125.367 23.0348 125.68 23.4634 125.861 23.9744C126.142 24.7327 126.397 25.4416 126.628 26.101C126.875 26.7439 127.164 27.3703 127.493 27.9803C127.84 28.5738 128.301 29.1919 128.878 29.8349C129.092 30.0821 129.2 30.3954 129.2 30.7745C129.216 31.1372 129.15 31.5081 129.002 31.8873C128.853 32.2499 128.631 32.5549 128.334 32.8022C128.054 33.0495 127.708 33.1731 127.296 33.1731C126.999 33.1731 126.76 33.1154 126.579 33C126.397 32.9011 126.241 32.7692 126.109 32.6044C125.746 32.1757 125.425 31.7554 125.144 31.3433C124.864 30.9146 124.6 30.4695 124.353 30.008C124.122 29.5299 123.9 29.0024 123.685 28.4254C123.488 27.8319 123.282 27.1478 123.067 26.373L124.378 26.2741C123.949 28.0215 123.372 29.4063 122.647 30.4283C121.938 31.4504 121.155 32.1757 120.298 32.6044C119.457 33.033 118.6 33.2473 117.726 33.2473ZM134.235 33.272C133.691 33.272 133.213 33.0989 132.8 32.7527C132.388 32.4065 132.059 31.9285 131.811 31.3185C131.581 30.6921 131.465 29.9585 131.465 29.1178C131.465 28.0957 131.622 27.2962 131.935 26.7192C132.265 26.1257 132.594 25.7136 132.924 25.4828C133.089 25.3509 133.287 25.2603 133.518 25.2108C133.748 25.1449 133.996 25.1119 134.259 25.1119C135.463 25.1119 136.707 25.0542 137.993 24.9388C139.279 24.8234 140.449 24.5596 141.505 24.1475L142.667 27.1148C141.842 27.4775 140.944 27.7577 139.971 27.9556C139.015 28.1369 138.026 28.2605 137.004 28.3265C135.999 28.3759 135.018 28.4007 134.062 28.4007L131.96 27.733C131.976 26.7604 131.993 25.7795 132.009 24.7904C132.042 23.7848 132.059 22.8617 132.059 22.0209C132.059 21.4769 132.157 21.0071 132.355 20.6115C132.57 20.2158 132.916 20.018 133.394 20.018C134.202 20.018 134.803 20.2653 135.199 20.7598C135.595 21.2379 135.792 21.9056 135.792 22.7628C135.792 23.1584 135.776 23.6035 135.743 24.0981C135.71 24.5761 135.677 25.0707 135.644 25.5817C135.628 26.0928 135.603 26.5791 135.57 27.0406C135.537 27.4857 135.52 27.8649 135.52 28.1781C135.52 28.7551 135.52 29.3321 135.52 29.9091C135.52 30.4695 135.52 31.1042 135.52 31.8131C135.52 32.2252 135.397 32.5714 135.15 32.8516C134.919 33.1319 134.614 33.272 134.235 33.272ZM142.914 33.272C142.288 33.272 141.793 33.0247 141.43 32.5302C141.084 32.0356 140.829 31.3762 140.664 30.552C140.515 29.7277 140.441 28.8128 140.441 27.8072C140.441 26.2246 140.482 24.9388 140.565 23.9497C140.647 22.9606 140.738 22.1858 140.837 21.6253C140.936 21.1472 141.183 20.7516 141.579 20.4384C141.974 20.1252 142.411 19.9686 142.889 19.9686C143.351 19.9686 143.738 20.1416 144.051 20.4878C144.381 20.8175 144.546 21.2049 144.546 21.65C144.546 22.2435 144.48 22.9194 144.348 23.6777C144.233 24.4195 144.175 25.318 144.175 26.373C144.175 27.1808 144.216 27.8979 144.299 28.5243C144.398 29.1507 144.488 29.7112 144.571 30.2058C144.653 30.6838 144.694 31.1454 144.694 31.5905C144.694 32.0356 144.53 32.4313 144.2 32.7775C143.87 33.1072 143.442 33.272 142.914 33.272ZM151.629 33.2473C150.772 33.2473 150.022 33.0907 149.379 32.7775C148.736 32.4478 148.233 31.9944 147.87 31.4174C147.508 30.824 147.326 30.1398 147.326 29.365C147.326 28.5243 147.466 27.6671 147.747 26.7934C148.027 25.9197 148.414 25.0872 148.909 24.2959C149.403 23.5046 149.972 22.7957 150.615 22.1693C151.274 21.5429 151.975 21.0483 152.717 20.6857C153.459 20.323 154.209 20.1416 154.967 20.1416C155.577 20.1416 156.096 20.3395 156.525 20.7351C156.954 21.1308 157.168 21.6912 157.168 22.4166C157.168 22.6803 157.094 22.8864 156.945 23.0348C156.797 23.1831 156.607 23.2821 156.377 23.3315C155.322 23.4964 154.39 23.9085 153.582 24.5679C152.775 25.2108 152.14 25.9856 151.678 26.8923C151.217 27.7825 150.986 28.7139 150.986 29.6865C150.986 29.9667 151.002 30.2305 151.035 30.4778C151.085 30.7086 151.176 31.0053 151.307 31.368L149.626 28.8458C150.022 29.1425 150.368 29.3486 150.665 29.464C150.978 29.5629 151.34 29.6123 151.753 29.6123C152.593 29.6123 153.376 29.093 154.102 28.0545C154.827 26.9994 155.346 25.4581 155.66 23.4304C155.709 23.0348 155.882 22.7298 156.179 22.5155C156.476 22.2847 156.813 22.1693 157.193 22.1693C157.836 22.1693 158.38 22.3424 158.825 22.6886C159.27 23.0348 159.583 23.4634 159.764 23.9744C160.045 24.7327 160.3 25.4416 160.531 26.101C160.778 26.7439 161.067 27.3703 161.396 27.9803C161.743 28.5738 162.204 29.1919 162.781 29.8349C162.995 30.0821 163.103 30.3954 163.103 30.7745C163.119 31.1372 163.053 31.5081 162.905 31.8873C162.756 32.2499 162.534 32.5549 162.237 32.8022C161.957 33.0495 161.611 33.1731 161.199 33.1731C160.902 33.1731 160.663 33.1154 160.481 33C160.3 32.9011 160.143 32.7692 160.012 32.6044C159.649 32.1757 159.327 31.7554 159.047 31.3433C158.767 30.9146 158.503 30.4695 158.256 30.008C158.025 29.5299 157.803 29.0024 157.588 28.4254C157.39 27.8319 157.184 27.1478 156.97 26.373L158.281 26.2741C157.967 27.5929 157.564 28.6974 157.069 29.5876C156.574 30.4778 156.03 31.1949 155.437 31.7389C154.86 32.2829 154.242 32.6703 153.582 32.9011C152.939 33.1319 152.288 33.2473 151.629 33.2473Z" fill="white"/>
</g>
<defs>
<filter id="filter0_di_42_43" x="0.341783" y="0.578163" width="207.917" height="52.7892" filterUnits="userSpaceOnUse" color-interpolation-filters="sRGB">
<feFlood flood-opacity="0" result="BackgroundImageFix"/>
<feColorMatrix in="SourceAlpha" type="matrix" values="0 0 0 0 0 0 0 0 0 0 0 0 0 0 0 0 0 0 127 0" result="hardAlpha"/>
<feMorphology radius="0.61819" operator="dilate" in="SourceAlpha" result="effect1_dropShadow_42_43"/>
<feOffset dx="1.23638" dy="2.47276"/>
<feGaussianBlur stdDeviation="1.6382"/>
<feComposite in2="hardAlpha" operator="out"/>
<feColorMatrix type="matrix" values="0 0 0 0 0.645833 0 0 0 0 0.161458 0 0 0 0 0.307685 0 0 0 0.5 0"/>
<feBlend mode="normal" in2="BackgroundImageFix" result="effect1_dropShadow_42_43"/>
<feBlend mode="normal" in="SourceGraphic" in2="effect1_dropShadow_42_43" result="shape"/>
<feColorMatrix in="SourceAlpha" type="matrix" values="0 0 0 0 0 0 0 0 0 0 0 0 0 0 0 0 0 0 127 0" result="hardAlpha"/>
<feMorphology radius="1.85457" operator="erode" in="SourceAlpha" result="effect2_innerShadow_42_43"/>
<feOffset dy="4.94552"/>
<feGaussianBlur stdDeviation="2.90549"/>
<feComposite in2="hardAlpha" operator="arithmetic" k2="-1" k3="1"/>
<feColorMatrix type="matrix" values="0 0 0 0 1 0 0 0 0 1 0 0 0 0 1 0 0 0 0.75 0"/>
<feBlend mode="normal" in2="shape" result="effect2_innerShadow_42_43"/>
</filter>
<linearGradient id="paint0_linear_42_43" x1="103.064" y1="47" x2="103.064" y2="2" gradientUnits="userSpaceOnUse">
<stop stop-color="#FFB3D2" stop-opacity="0"/>
<stop offset="1" stop-color="#FFC1DB"/>
</linearGradient>
<radialGradient id="paint1_radial_42_43" cx="0" cy="0" r="1" gradientUnits="userSpaceOnUse" gradientTransform="translate(22.6779 14.7016) scale(7.53621 6.30116)">
<stop stop-color="white"/>
<stop offset="0.87" stop-color="white" stop-opacity="0.95"/>
<stop offset="1" stop-color="white" stop-opacity="0"/>
</radialGradient>
</defs>
</svg>
