<svg width="174" height="87" viewBox="0 0 174 87" fill="none" xmlns="http://www.w3.org/2000/svg">
<g filter="url(#filter0_di_42_14)">
<rect x="3" y="2" width="165" height="78" rx="39" fill="#FE5A87"/>
<rect x="3" y="2" width="165" height="78" rx="39" fill="url(#paint0_linear_42_14)"/>
<rect x="3" y="2" width="165" height="78" rx="39" fill="url(#paint1_radial_42_14)" fill-opacity="0.8"/>
<rect x="3.92729" y="2.92729" width="163.145" height="76.1454" rx="38.0727" stroke="#E4648B" stroke-width="1.85457"/>
<path d="M41.6399 52.98C40.9785 52.98 40.4239 52.7133 39.9759 52.18C39.5279 51.6253 39.3039 51.0067 39.3039 50.324C39.3039 49.94 39.3359 49.2787 39.3999 48.34C39.4639 47.38 39.5279 46.2707 39.5919 45.012C39.6559 43.732 39.6879 42.452 39.6879 41.172C39.6879 39.4867 39.6879 38.1 39.6879 37.012C39.6879 35.924 39.6879 35.028 39.6879 34.324C39.6879 33.62 39.6665 33.0013 39.6239 32.468L44.4879 32.308C44.5305 32.6067 44.5625 33.524 44.5839 35.06C44.6052 36.5747 44.5945 38.644 44.5519 41.268C44.5305 42.612 44.4879 43.924 44.4239 45.204C44.3599 46.4627 44.3065 47.5827 44.2639 48.564C44.2212 49.5453 44.1679 50.26 44.1039 50.708C44.0185 51.3907 43.7625 51.9453 43.3359 52.372C42.9305 52.7773 42.3652 52.98 41.6399 52.98ZM40.0079 34.804C39.5599 34.804 39.1225 34.676 38.6959 34.42C38.2905 34.1427 37.9599 33.8013 37.7039 33.396C37.4692 32.9907 37.3519 32.5747 37.3519 32.148C37.3519 31.444 37.5865 30.932 38.0559 30.612C38.5252 30.2707 39.3679 30.0573 40.5839 29.972C40.8825 29.9507 41.3839 29.9293 42.0879 29.908C42.8132 29.8653 43.6452 29.8333 44.5839 29.812C45.5439 29.7907 46.5359 29.78 47.5599 29.78C48.6052 29.7587 49.6079 29.748 50.5679 29.748C51.5705 29.748 52.3705 29.876 52.9679 30.132C53.5865 30.388 54.0345 30.7293 54.3119 31.156C54.5892 31.5827 54.7279 32.052 54.7279 32.564C54.7279 33.204 54.5252 33.6947 54.1199 34.036C53.7145 34.356 53.1279 34.516 52.3599 34.516C51.5492 34.516 50.6745 34.484 49.7359 34.42C48.8185 34.3347 47.9652 34.292 47.1759 34.292C46.1519 34.292 45.1599 34.3347 44.1999 34.42C43.2612 34.484 42.4185 34.5693 41.6719 34.676C40.9465 34.7613 40.3919 34.804 40.0079 34.804ZM63.0309 52.82C61.8149 52.82 60.7055 52.596 59.7029 52.148C58.7215 51.7 57.9429 51.1027 57.3669 50.356C56.7909 49.6093 56.5029 48.8093 56.5029 47.956C56.5029 47.572 56.6415 47.2307 56.9189 46.932C57.1962 46.6333 57.5055 46.484 57.8469 46.484C58.1882 46.484 58.4975 46.5693 58.7749 46.74C59.0735 46.8893 59.3722 47.0707 59.6709 47.284C59.9909 47.4973 60.3535 47.6893 60.7589 47.86C61.1855 48.0093 61.6869 48.084 62.2629 48.084C63.2015 48.084 63.9589 47.8813 64.5349 47.476C65.1109 47.0707 65.3989 46.388 65.3989 45.428C65.3989 44.6813 65.2175 44.02 64.8549 43.444C64.4922 42.8467 64.0122 42.3453 63.4149 41.94C62.8389 41.5347 62.1989 41.236 61.4949 41.044C60.7909 40.8307 60.1082 40.724 59.4469 40.724C59.1695 40.724 58.8922 40.756 58.6149 40.82C58.3589 40.884 58.0282 40.916 57.6229 40.916C57.2175 40.916 56.8122 40.8093 56.4069 40.596C56.0015 40.3613 55.6709 40.0627 55.4149 39.7C55.1589 39.316 55.0309 38.9 55.0309 38.452C55.0309 37.4493 55.4149 36.7667 56.1829 36.404C56.9509 36.02 58.0815 35.828 59.5749 35.828C61.0682 35.828 62.4762 36.0627 63.7989 36.532C65.1215 36.98 66.2842 37.652 67.2869 38.548C68.2895 39.4227 69.0789 40.5 69.6549 41.78C70.2309 43.06 70.5189 44.5213 70.5189 46.164C70.5189 46.9747 70.3375 47.7747 69.9749 48.564C69.6335 49.3533 69.1429 50.068 68.5029 50.708C67.8629 51.348 67.0842 51.86 66.1669 52.244C65.2495 52.628 64.2042 52.82 63.0309 52.82ZM57.1429 60.852C56.7375 60.852 56.3322 60.7453 55.9269 60.532C55.5429 60.3187 55.2122 59.988 54.9349 59.54C54.6789 59.092 54.5509 58.5267 54.5509 57.844C54.5509 57.396 54.5829 56.9907 54.6469 56.628C54.7109 56.2867 54.7642 55.9347 54.8069 55.572C54.8709 55.2093 54.9349 54.804 54.9989 54.356C55.0629 53.9293 55.0949 53.396 55.0949 52.756C55.0949 51.5613 55.0202 50.42 54.8709 49.332C54.7429 48.2227 54.5722 47.1347 54.3589 46.068C54.1669 45.0013 53.9749 43.924 53.7829 42.836C53.6122 41.748 53.4949 40.6387 53.4309 39.508C53.4095 39.1667 53.4629 38.8787 53.5909 38.644C53.7189 38.4093 53.9109 38.228 54.1669 38.1C54.4229 37.972 54.7215 37.908 55.0629 37.908C55.6815 37.908 56.2575 38.0467 56.7909 38.324C57.3455 38.6013 57.7935 38.964 58.1349 39.412C58.4762 39.8387 58.6469 40.3293 58.6469 40.884C58.6469 42.1 58.7215 43.2627 58.8709 44.372C59.0415 45.4813 59.2229 46.5587 59.4149 47.604C59.6069 48.628 59.7775 49.6627 59.9269 50.708C60.0975 51.7533 60.1829 52.8413 60.1829 53.972C60.1829 54.8253 60.1402 55.6573 60.0549 56.468C59.9909 57.2787 59.8522 58.0147 59.6389 58.676C59.4469 59.3373 59.1482 59.86 58.7429 60.244C58.3589 60.6493 57.8255 60.852 57.1429 60.852ZM79.1701 52.82C78.0608 52.82 77.0901 52.6173 76.2581 52.212C75.4261 51.7853 74.7755 51.1987 74.3061 50.452C73.8368 49.684 73.6021 48.7987 73.6021 47.796C73.6021 46.708 73.7835 45.5987 74.1461 44.468C74.5088 43.3373 75.0101 42.26 75.6501 41.236C76.2901 40.212 77.0261 39.2947 77.8581 38.484C78.7115 37.6733 79.6181 37.0333 80.5781 36.564C81.5381 36.0947 82.5088 35.86 83.4901 35.86C84.2795 35.86 84.9515 36.116 85.5061 36.628C86.0608 37.14 86.3381 37.8653 86.3381 38.804C86.3381 39.1453 86.2421 39.412 86.0501 39.604C85.8581 39.796 85.6128 39.924 85.3141 39.988C83.9488 40.2013 82.7435 40.7347 81.6981 41.588C80.6528 42.42 79.8315 43.4227 79.2341 44.596C78.6368 45.748 78.3381 46.9533 78.3381 48.212C78.3381 48.5747 78.3595 48.916 78.4021 49.236C78.4661 49.5347 78.5835 49.9187 78.7541 50.388L76.5781 47.124C77.0901 47.508 77.5381 47.7747 77.9221 47.924C78.3275 48.052 78.7968 48.116 79.3301 48.116C80.4181 48.116 81.4315 47.444 82.3701 46.1C83.3088 44.7347 83.9808 42.74 84.3861 40.116C84.4501 39.604 84.6741 39.2093 85.0581 38.932C85.4421 38.6333 85.8795 38.484 86.3701 38.484C87.2021 38.484 87.9061 38.708 88.4821 39.156C89.0581 39.604 89.4635 40.1587 89.6981 40.82C90.0608 41.8013 90.3915 42.7187 90.6901 43.572C91.0101 44.404 91.3835 45.2147 91.8101 46.004C92.2581 46.772 92.8555 47.572 93.6021 48.404C93.8795 48.724 94.0181 49.1293 94.0181 49.62C94.0395 50.0893 93.9541 50.5693 93.7621 51.06C93.5701 51.5293 93.2821 51.924 92.8981 52.244C92.5355 52.564 92.0875 52.724 91.5541 52.724C91.1701 52.724 90.8608 52.6493 90.6261 52.5C90.3915 52.372 90.1888 52.2013 90.0181 51.988C89.5488 51.4333 89.1328 50.8893 88.7701 50.356C88.4075 49.8013 88.0661 49.2253 87.7461 48.628C87.4475 48.0093 87.1595 47.3267 86.8821 46.58C86.6261 45.812 86.3595 44.9267 86.0821 43.924L87.7781 43.796C87.2235 46.0573 86.4768 47.8493 85.5381 49.172C84.6208 50.4947 83.6075 51.4333 82.4981 51.988C81.4101 52.5427 80.3008 52.82 79.1701 52.82ZM96.1324 41.332C95.471 41.332 94.8844 41.0973 94.3724 40.628C93.8817 40.1587 93.6364 39.5933 93.6364 38.932C93.6364 38.4413 93.7644 38.036 94.0204 37.716C94.2977 37.396 94.6924 37.14 95.2044 36.948C95.9297 36.6493 96.975 36.372 98.3404 36.116C99.727 35.86 101.466 35.732 103.556 35.732C104.751 35.732 105.828 35.764 106.788 35.828C107.748 35.892 108.772 35.9987 109.86 36.148C110.607 36.2547 111.194 36.4893 111.62 36.852C112.068 37.2147 112.292 37.6947 112.292 38.292C112.292 38.676 112.175 39.06 111.94 39.444C111.727 39.8067 111.428 40.1053 111.044 40.34C110.66 40.5533 110.223 40.66 109.732 40.66C109.37 40.66 108.847 40.6387 108.164 40.596C107.503 40.532 106.778 40.468 105.988 40.404C105.199 40.34 104.42 40.308 103.652 40.308C102.202 40.308 101.018 40.3933 100.1 40.564C99.183 40.7133 98.4257 40.884 97.8284 41.076C97.231 41.2467 96.6657 41.332 96.1324 41.332ZM103.172 52.884C102.639 52.884 102.202 52.756 101.86 52.5C101.54 52.2653 101.242 51.8813 100.964 51.348C100.73 50.8573 100.538 50.2173 100.388 49.428C100.26 48.6387 100.164 47.7853 100.1 46.868C100.058 45.9507 100.036 45.0547 100.036 44.18C100.036 42.7933 100.004 41.6307 99.9404 40.692C99.8764 39.732 99.8444 38.9533 99.8444 38.356L104.676 38.1C104.676 38.2493 104.687 38.5907 104.708 39.124C104.73 39.6573 104.751 40.2867 104.772 41.012C104.794 41.7373 104.815 42.4947 104.836 43.284C104.858 44.052 104.868 44.756 104.868 45.396C104.868 46.1213 104.911 46.7613 104.996 47.316C105.082 47.8493 105.167 48.3187 105.252 48.724C105.359 49.1293 105.455 49.492 105.54 49.812C105.626 50.1107 105.668 50.3987 105.668 50.676C105.668 51.1027 105.53 51.4867 105.252 51.828C104.996 52.148 104.676 52.404 104.292 52.596C103.93 52.788 103.556 52.884 103.172 52.884ZM118.853 52.884C118 52.884 117.285 52.7133 116.709 52.372C116.155 52.0093 115.707 51.5293 115.365 50.932C115.045 50.3133 114.811 49.6307 114.661 48.884C114.512 48.116 114.437 47.3267 114.437 46.516C114.437 45.8547 114.459 45.1293 114.501 44.34C114.565 43.5293 114.64 42.7293 114.725 41.94C114.811 41.1507 114.896 40.4147 114.981 39.732C115.067 39.0493 115.152 38.5053 115.237 38.1C115.365 37.3533 115.6 36.7987 115.941 36.436C116.283 36.052 116.677 35.86 117.125 35.86C117.616 35.86 118.075 35.9773 118.501 36.212C118.949 36.4253 119.312 36.7133 119.589 37.076C119.867 37.4387 120.005 37.844 120.005 38.292C120.005 38.612 119.963 39.06 119.877 39.636C119.792 40.1907 119.696 40.8093 119.589 41.492C119.483 42.1533 119.387 42.836 119.301 43.54C119.216 44.2227 119.173 44.884 119.173 45.524C119.173 45.908 119.184 46.292 119.205 46.676C119.248 47.0387 119.323 47.348 119.429 47.604C119.536 47.86 119.717 47.988 119.973 47.988C120.485 47.988 121.019 47.572 121.573 46.74C122.149 45.908 122.725 44.852 123.301 43.572C123.771 42.612 124.155 41.6733 124.453 40.756C124.773 39.8387 125.072 39.0173 125.349 38.292C125.627 37.5453 125.936 36.948 126.277 36.5C126.64 36.052 127.109 35.828 127.685 35.828C128.56 35.828 129.232 36.0733 129.701 36.564C130.192 37.0333 130.48 37.6307 130.565 38.356C130.672 38.9107 130.789 39.604 130.917 40.436C131.067 41.268 131.227 42.0893 131.397 42.9C131.568 43.6893 131.717 44.308 131.845 44.756C132.101 45.7373 132.389 46.5373 132.709 47.156C133.029 47.7747 133.307 48.3187 133.541 48.788C133.776 49.2573 133.893 49.7373 133.893 50.228C133.893 50.676 133.776 51.092 133.541 51.476C133.307 51.86 132.987 52.18 132.581 52.436C132.197 52.6707 131.771 52.788 131.301 52.788C130.683 52.788 130.149 52.5747 129.701 52.148C129.275 51.7213 128.891 51.1027 128.549 50.292C128.229 49.4813 127.909 48.5107 127.589 47.38C127.397 46.5907 127.205 45.7907 127.013 44.98C126.843 44.1693 126.683 43.3693 126.533 42.58C126.405 41.7907 126.288 41.0547 126.181 40.372L128.453 40.02C128.347 40.34 128.197 40.7987 128.005 41.396C127.835 41.9933 127.611 42.6867 127.333 43.476C127.056 44.2653 126.757 45.1187 126.437 46.036C125.861 47.5293 125.157 48.788 124.325 49.812C123.515 50.836 122.629 51.604 121.669 52.116C120.731 52.628 119.792 52.884 118.853 52.884Z" fill="white"/>
</g>
<defs>
<filter id="filter0_di_42_14" x="0.341783" y="0.578163" width="172.789" height="85.7892" filterUnits="userSpaceOnUse" color-interpolation-filters="sRGB">
<feFlood flood-opacity="0" result="BackgroundImageFix"/>
<feColorMatrix in="SourceAlpha" type="matrix" values="0 0 0 0 0 0 0 0 0 0 0 0 0 0 0 0 0 0 127 0" result="hardAlpha"/>
<feMorphology radius="0.61819" operator="dilate" in="SourceAlpha" result="effect1_dropShadow_42_14"/>
<feOffset dx="1.23638" dy="2.47276"/>
<feGaussianBlur stdDeviation="1.6382"/>
<feComposite in2="hardAlpha" operator="out"/>
<feColorMatrix type="matrix" values="0 0 0 0 0.645833 0 0 0 0 0.161458 0 0 0 0 0.307685 0 0 0 0.5 0"/>
<feBlend mode="normal" in2="BackgroundImageFix" result="effect1_dropShadow_42_14"/>
<feBlend mode="normal" in="SourceGraphic" in2="effect1_dropShadow_42_14" result="shape"/>
<feColorMatrix in="SourceAlpha" type="matrix" values="0 0 0 0 0 0 0 0 0 0 0 0 0 0 0 0 0 0 127 0" result="hardAlpha"/>
<feMorphology radius="1.85457" operator="erode" in="SourceAlpha" result="effect2_innerShadow_42_14"/>
<feOffset dy="4.94552"/>
<feGaussianBlur stdDeviation="2.90549"/>
<feComposite in2="hardAlpha" operator="arithmetic" k2="-1" k3="1"/>
<feColorMatrix type="matrix" values="0 0 0 0 1 0 0 0 0 1 0 0 0 0 1 0 0 0 0.75 0"/>
<feBlend mode="normal" in2="shape" result="effect2_innerShadow_42_14"/>
</filter>
<linearGradient id="paint0_linear_42_14" x1="85.5" y1="80" x2="85.5" y2="2" gradientUnits="userSpaceOnUse">
<stop stop-color="#FFB3D2" stop-opacity="0"/>
<stop offset="1" stop-color="#FFC1DB"/>
</linearGradient>
<radialGradient id="paint1_radial_42_14" cx="0" cy="0" r="1" gradientUnits="userSpaceOnUse" gradientTransform="translate(19.2238 24.0161) scale(6.21339 10.922)">
<stop stop-color="white"/>
<stop offset="0.87" stop-color="white" stop-opacity="0.95"/>
<stop offset="1" stop-color="white" stop-opacity="0"/>
</radialGradient>
</defs>
</svg>
