<svg width="209" height="54" viewBox="0 0 209 54" fill="none" xmlns="http://www.w3.org/2000/svg">
<g filter="url(#filter0_di_42_49)">
<rect x="3" y="2" width="200" height="45" rx="22.5" fill="#B6FF9B"/>
<rect x="3" y="2" width="200" height="45" rx="22.5" fill="url(#paint0_linear_42_49)"/>
<rect x="3" y="2" width="200" height="45" rx="22.5" fill="url(#paint1_radial_42_49)" fill-opacity="0.8"/>
<rect x="3.92729" y="2.92729" width="198.145" height="43.1454" rx="21.5727" stroke="#4AB623" stroke-width="1.85457"/>
<path d="M71.7906 33.2473C70.241 33.2473 68.9304 32.9176 67.8589 32.2582C66.8038 31.5823 65.9961 30.6674 65.4356 29.5134C64.8916 28.3595 64.6196 27.0406 64.6196 25.557C64.6196 24.2217 64.8669 22.9524 65.3614 21.7489C65.856 20.529 66.5318 19.4493 67.3891 18.5096C68.2463 17.5535 69.2272 16.8034 70.3317 16.2594C71.4362 15.6989 72.6066 15.4187 73.843 15.4187C75.0958 15.4187 75.9943 15.6824 76.5383 16.21C77.0823 16.721 77.3543 17.4381 77.3543 18.3613C77.3543 18.8723 77.2719 19.3504 77.107 19.7955C76.9586 20.2406 76.7279 20.6032 76.4146 20.8835C76.1014 21.1637 75.7058 21.3038 75.2277 21.3038C74.9969 21.3038 74.7991 21.2544 74.6343 21.1555C74.4694 21.0566 74.3458 20.9247 74.2633 20.7598C74.1974 20.5785 74.1644 20.3889 74.1644 20.1911C74.1644 20.0263 74.1397 19.8944 74.0902 19.7955C74.0408 19.6801 73.9501 19.5976 73.8182 19.5482C73.6864 19.4822 73.4803 19.4493 73.2001 19.4493C72.4912 19.4493 71.84 19.6224 71.2466 19.9686C70.6696 20.3147 70.1668 20.7846 69.7382 21.378C69.3261 21.955 68.9964 22.6062 68.7491 23.3315C68.5183 24.0569 68.4029 24.7987 68.4029 25.557C68.4029 26.8593 68.7244 27.8649 69.3673 28.5738C70.0102 29.2661 70.8839 29.6123 71.9884 29.6123C72.5654 29.6123 73.0434 29.5546 73.4226 29.4392C73.8018 29.3238 74.1067 29.1837 74.3375 29.0189C74.5683 28.8375 74.7744 28.6644 74.9557 28.4996C75.1535 28.3347 75.3514 28.1946 75.5492 28.0792C75.7635 27.9473 76.019 27.8814 76.3157 27.8814C76.7773 27.8814 77.107 28.0133 77.3048 28.277C77.5191 28.5408 77.6263 28.9035 77.6263 29.365C77.6263 29.8266 77.4944 30.2882 77.2307 30.7498C76.9834 31.2114 76.6042 31.6317 76.0932 32.0109C75.5986 32.3901 74.9887 32.695 74.2633 32.9258C73.538 33.1401 72.7137 33.2473 71.7906 33.2473ZM81.5943 33.2967C81.2481 33.2967 80.9184 33.1978 80.6052 33C80.292 32.8187 80.0447 32.5796 79.8634 32.2829C79.682 31.9697 79.5914 31.64 79.5914 31.2938C79.5914 30.9146 79.6985 30.4366 79.9128 29.8596C80.1436 29.2661 80.4239 28.6315 80.7536 27.9556C81.0833 27.2632 81.413 26.5873 81.7427 25.9279C82.0229 25.3674 82.3279 24.8152 82.6576 24.2712C83.0038 23.7107 83.35 23.1831 83.6961 22.6886C84.0588 22.1776 84.3885 21.7325 84.6853 21.3533C84.9985 20.9577 85.3694 20.6362 85.798 20.3889C86.2266 20.1252 86.7047 19.9933 87.2322 19.9933C87.7927 19.9933 88.2213 20.1334 88.518 20.4137C88.8312 20.6939 89.1362 21.139 89.433 21.7489C89.6308 22.1776 89.8286 22.6639 90.0264 23.2079C90.2407 23.7519 90.455 24.3124 90.6693 24.8893C90.9001 25.4663 91.1309 26.0351 91.3617 26.5956C91.6749 27.2879 91.9387 27.8484 92.153 28.277C92.3673 28.6892 92.5569 29.0271 92.7217 29.2909C92.8866 29.5381 93.0349 29.7607 93.1668 29.9585C93.3646 30.2223 93.5048 30.4531 93.5872 30.6509C93.6861 30.8322 93.7356 31.0712 93.7356 31.368C93.7356 31.7142 93.6449 32.0356 93.4635 32.3324C93.2822 32.6126 93.0514 32.8351 92.7712 33C92.4909 33.1813 92.1777 33.272 91.8315 33.272C91.4689 33.272 91.1227 33.1649 90.793 32.9505C90.4633 32.7362 90.1583 32.4478 89.878 32.0851C89.6143 31.7224 89.3753 31.3185 89.1609 30.8734C88.9631 30.5108 88.7323 30.0244 88.4686 29.4145C88.2048 28.7881 87.9328 28.1287 87.6526 27.4363C87.3888 26.7274 87.1415 26.0515 86.9107 25.4086C86.6799 24.7657 86.5069 24.2382 86.3915 23.8261L87.5784 23.653C87.3311 23.9332 87.0179 24.3701 86.6387 24.9635C86.2596 25.557 85.8639 26.2494 85.4518 27.0406C85.0397 27.8319 84.644 28.6397 84.2649 29.464C83.9022 30.2717 83.5972 31.03 83.35 31.7389C83.1686 32.2499 82.9296 32.6373 82.6329 32.9011C82.3526 33.1649 82.0064 33.2967 81.5943 33.2967ZM102.726 33.2967C101.292 33.2967 100.023 33.0082 98.9181 32.4313C97.8136 31.8543 96.9399 31.063 96.297 30.0574C95.6706 29.0353 95.3573 27.8731 95.3573 26.5708C95.3573 25.7301 95.5387 24.9223 95.9013 24.1475C96.264 23.3727 96.7338 22.6803 97.3108 22.0704C97.9043 21.4605 98.5554 20.9824 99.2643 20.6362C99.9732 20.2735 100.666 20.0922 101.341 20.0922C101.622 20.0922 101.885 20.1416 102.133 20.2406C102.396 20.323 102.603 20.4631 102.751 20.6609C102.899 20.8423 102.973 21.0978 102.973 21.4275C102.973 22.0209 102.85 22.5402 102.603 22.9853C102.372 23.4304 101.885 23.7766 101.144 24.0239C100.781 24.1887 100.443 24.403 100.13 24.6668C99.833 24.9306 99.594 25.2355 99.4127 25.5817C99.2313 25.9279 99.1407 26.2906 99.1407 26.6697C99.1407 27.6094 99.4539 28.3677 100.08 28.9447C100.707 29.5217 101.547 29.8101 102.603 29.8101C103.493 29.8101 104.218 29.5217 104.779 28.9447C105.339 28.3677 105.619 27.6011 105.619 26.645C105.619 25.8208 105.38 25.1614 104.902 24.6668C104.424 24.1558 103.798 23.9002 103.023 23.9002C102.644 23.9002 102.322 23.9992 102.059 24.197C101.811 24.3948 101.523 24.6586 101.193 24.9883C100.962 25.2355 100.756 25.4334 100.575 25.5817C100.394 25.7301 100.212 25.8455 100.031 25.9279C99.866 25.9938 99.6517 26.0268 99.3879 26.0268C99.0912 26.0268 98.8274 25.9114 98.5966 25.6806C98.3823 25.4498 98.2752 25.013 98.2752 24.3701C98.2752 23.9085 98.3988 23.4387 98.6461 22.9606C98.9099 22.4825 99.2478 22.0457 99.6599 21.65C100.089 21.2544 100.567 20.9412 101.094 20.7104C101.622 20.4631 102.149 20.3395 102.677 20.3395C104.078 20.3395 105.273 20.595 106.262 21.106C107.268 21.6006 108.034 22.3094 108.562 23.2326C109.089 24.1558 109.353 25.252 109.353 26.5214C109.353 27.8072 109.056 28.9612 108.463 29.9832C107.886 31.0053 107.095 31.8131 106.089 32.4065C105.1 33 103.979 33.2967 102.726 33.2967ZM117.465 33.4698C116.575 33.4698 115.8 33.3297 115.14 33.0495C114.481 32.7692 113.929 32.3818 113.484 31.8873C113.039 31.3762 112.709 30.7992 112.495 30.1563C112.28 29.4969 112.173 28.7963 112.173 28.0545C112.173 27.3291 112.214 26.5296 112.297 25.6559C112.396 24.7657 112.536 23.9167 112.717 23.109C112.915 22.3012 113.179 21.6253 113.508 21.0813C113.64 20.8505 113.838 20.6527 114.102 20.4878C114.366 20.323 114.662 20.1993 114.992 20.1169C115.338 20.018 115.676 19.9686 116.006 19.9686C116.352 19.9686 116.632 20.0757 116.847 20.29C117.061 20.4878 117.168 20.8175 117.168 21.2791C117.168 21.5758 117.102 21.9468 116.97 22.3919C116.838 22.8205 116.673 23.3315 116.476 23.925C116.294 24.5019 116.138 25.1531 116.006 25.8785C115.874 26.5873 115.808 27.3704 115.808 28.2276C115.808 28.8705 115.94 29.431 116.204 29.9091C116.467 30.3871 116.913 30.6262 117.539 30.6262C118.017 30.6262 118.479 30.519 118.924 30.3047C119.369 30.0739 119.748 29.7607 120.061 29.365C120.374 28.9694 120.589 28.5243 120.704 28.0298L121.001 28.4996C120.754 28.4172 120.399 28.3347 119.938 28.2523C119.492 28.1534 118.998 28.071 118.454 28.005C117.926 27.9391 117.399 27.8814 116.871 27.8319C116.36 27.7825 115.915 27.766 115.536 27.7825L115.734 25.7301C116.228 25.7301 116.731 25.6559 117.242 25.5075C117.77 25.3427 118.248 25.1531 118.676 24.9388C119.122 24.708 119.476 24.469 119.74 24.2217C120.02 23.9579 120.16 23.7189 120.16 23.5046C120.16 23.3233 120.061 23.1914 119.863 23.109C119.682 23.01 119.41 22.9606 119.047 22.9606C118.437 22.9606 117.877 23.0348 117.366 23.1831C116.871 23.315 116.418 23.4634 116.006 23.6282C115.594 23.7766 115.215 23.8755 114.868 23.925C114.539 23.9415 114.25 23.859 114.003 23.6777C113.772 23.4799 113.657 23.1996 113.657 22.837C113.673 22.4248 113.838 22.0704 114.151 21.7737C114.481 21.4605 114.885 21.2214 115.363 21.0566C116.27 20.7269 117.143 20.5126 117.984 20.4137C118.825 20.2983 119.6 20.2406 120.308 20.2406C121.1 20.2406 121.776 20.323 122.336 20.4878C122.913 20.6527 123.35 20.9082 123.647 21.2544C123.96 21.5841 124.116 21.9962 124.116 22.4908C124.116 23.0348 123.952 23.5623 123.622 24.0733C123.292 24.5679 122.831 25.0295 122.237 25.4581C121.644 25.8867 120.96 26.2741 120.185 26.6203C119.41 26.95 118.569 27.2055 117.663 27.3868L118.256 25.6559C119.031 25.6394 119.781 25.6724 120.506 25.7548C121.232 25.8208 121.891 25.9444 122.484 26.1257C123.078 26.3071 123.54 26.5626 123.869 26.8923C124.215 27.222 124.388 27.6506 124.388 28.1781C124.388 28.821 124.199 29.4557 123.82 30.0821C123.441 30.7086 122.921 31.2773 122.262 31.7883C121.603 32.2994 120.861 32.7033 120.036 33C119.212 33.3132 118.355 33.4698 117.465 33.4698ZM130.708 33.2473C129.85 33.2473 129.1 33.0907 128.457 32.7775C127.814 32.4478 127.312 31.9944 126.949 31.4174C126.586 30.824 126.405 30.1398 126.405 29.365C126.405 28.5243 126.545 27.6671 126.825 26.7934C127.106 25.9197 127.493 25.0872 127.988 24.2959C128.482 23.5046 129.051 22.7957 129.694 22.1693C130.353 21.5429 131.054 21.0483 131.796 20.6857C132.537 20.323 133.287 20.1416 134.046 20.1416C134.656 20.1416 135.175 20.3395 135.604 20.7351C136.032 21.1308 136.247 21.6912 136.247 22.4166C136.247 22.6803 136.172 22.8864 136.024 23.0348C135.876 23.1831 135.686 23.2821 135.455 23.3315C134.4 23.4964 133.469 23.9085 132.661 24.5679C131.853 25.2108 131.219 25.9856 130.757 26.8923C130.295 27.7825 130.065 28.7139 130.065 29.6865C130.065 29.9667 130.081 30.2305 130.114 30.4778C130.164 30.7086 130.254 31.0053 130.386 31.368L128.705 28.8458C129.1 29.1425 129.446 29.3486 129.743 29.464C130.056 29.5629 130.419 29.6123 130.831 29.6123C131.672 29.6123 132.455 29.093 133.18 28.0545C133.906 26.9994 134.425 25.4581 134.738 23.4304C134.788 23.0348 134.961 22.7298 135.257 22.5155C135.554 22.2847 135.892 22.1693 136.271 22.1693C136.914 22.1693 137.458 22.3424 137.903 22.6886C138.348 23.0348 138.662 23.4634 138.843 23.9744C139.123 24.7327 139.379 25.4416 139.609 26.101C139.857 26.7439 140.145 27.3703 140.475 27.9803C140.821 28.5738 141.283 29.1919 141.86 29.8349C142.074 30.0821 142.181 30.3954 142.181 30.7745C142.198 31.1372 142.132 31.5081 141.983 31.8873C141.835 32.2499 141.612 32.5549 141.316 32.8022C141.035 33.0495 140.689 33.1731 140.277 33.1731C139.98 33.1731 139.741 33.1154 139.56 33C139.379 32.9011 139.222 32.7692 139.09 32.6044C138.728 32.1757 138.406 31.7554 138.126 31.3433C137.846 30.9146 137.582 30.4695 137.335 30.008C137.104 29.5299 136.881 29.0024 136.667 28.4254C136.469 27.8319 136.263 27.1478 136.049 26.373L137.359 26.2741C137.046 27.5929 136.642 28.6974 136.148 29.5876C135.653 30.4778 135.109 31.1949 134.516 31.7389C133.939 32.2829 133.32 32.6703 132.661 32.9011C132.018 33.1319 131.367 33.2473 130.708 33.2473Z" fill="white"/>
</g>
<defs>
<filter id="filter0_di_42_49" x="0.341783" y="0.578163" width="207.789" height="52.7892" filterUnits="userSpaceOnUse" color-interpolation-filters="sRGB">
<feFlood flood-opacity="0" result="BackgroundImageFix"/>
<feColorMatrix in="SourceAlpha" type="matrix" values="0 0 0 0 0 0 0 0 0 0 0 0 0 0 0 0 0 0 127 0" result="hardAlpha"/>
<feMorphology radius="0.61819" operator="dilate" in="SourceAlpha" result="effect1_dropShadow_42_49"/>
<feOffset dx="1.23638" dy="2.47276"/>
<feGaussianBlur stdDeviation="1.6382"/>
<feComposite in2="hardAlpha" operator="out"/>
<feColorMatrix type="matrix" values="0 0 0 0 0.417564 0 0 0 0 0.8 0 0 0 0 0.276667 0 0 0 0.5 0"/>
<feBlend mode="normal" in2="BackgroundImageFix" result="effect1_dropShadow_42_49"/>
<feBlend mode="normal" in="SourceGraphic" in2="effect1_dropShadow_42_49" result="shape"/>
<feColorMatrix in="SourceAlpha" type="matrix" values="0 0 0 0 0 0 0 0 0 0 0 0 0 0 0 0 0 0 127 0" result="hardAlpha"/>
<feMorphology radius="1.85457" operator="erode" in="SourceAlpha" result="effect2_innerShadow_42_49"/>
<feOffset dy="4.94552"/>
<feGaussianBlur stdDeviation="2.90549"/>
<feComposite in2="hardAlpha" operator="arithmetic" k2="-1" k3="1"/>
<feColorMatrix type="matrix" values="0 0 0 0 1 0 0 0 0 1 0 0 0 0 1 0 0 0 0.75 0"/>
<feBlend mode="normal" in2="shape" result="effect2_innerShadow_42_49"/>
</filter>
<linearGradient id="paint0_linear_42_49" x1="103" y1="47" x2="103" y2="2" gradientUnits="userSpaceOnUse">
<stop stop-color="#2A8B07" stop-opacity="0"/>
<stop offset="1" stop-color="#8EFF64"/>
</linearGradient>
<radialGradient id="paint1_radial_42_49" cx="0" cy="0" r="1" gradientUnits="userSpaceOnUse" gradientTransform="translate(22.6653 14.7016) scale(7.53138 6.30116)">
<stop stop-color="white"/>
<stop offset="0.87" stop-color="white" stop-opacity="0.95"/>
<stop offset="1" stop-color="white" stop-opacity="0"/>
</radialGradient>
</defs>
</svg>
