<svg width="189" height="52" viewBox="0 0 189 52" fill="none" xmlns="http://www.w3.org/2000/svg">
<g filter="url(#filter0_di_42_15)">
<rect x="3" y="2" width="180" height="42.891" rx="21.4455" fill="#2996DB"/>
<rect x="3" y="2" width="180" height="42.891" rx="21.4455" fill="url(#paint0_linear_42_15)"/>
<rect x="3" y="2" width="180" height="42.891" rx="21.4455" fill="url(#paint1_radial_42_15)" fill-opacity="0.8"/>
<rect x="3.92729" y="2.92729" width="178.145" height="41.0365" rx="20.5182" stroke="#2592D7" stroke-width="1.85457"/>
<path d="M45.5636 32.1928C44.014 32.1928 42.7034 31.8631 41.6319 31.2037C40.5768 30.5278 39.7691 29.6129 39.2086 28.459C38.6646 27.305 38.3926 25.9862 38.3926 24.5025C38.3926 23.1673 38.6399 21.8979 39.1344 20.6945C39.629 19.4746 40.3048 18.3948 41.1621 17.4552C42.0193 16.499 43.0002 15.749 44.1047 15.205C45.2092 14.6445 46.3796 14.3642 47.616 14.3642C48.8688 14.3642 49.7673 14.628 50.3113 15.1555C50.8553 15.6666 51.1273 16.3837 51.1273 17.3068C51.1273 17.8179 51.0449 18.2959 50.88 18.741C50.7316 19.1861 50.5009 19.5488 50.1876 19.829C49.8744 20.1093 49.4788 20.2494 49.0007 20.2494C48.7699 20.2494 48.5721 20.1999 48.4073 20.101C48.2424 20.0021 48.1188 19.8702 48.0363 19.7054C47.9704 19.5241 47.9374 19.3345 47.9374 19.1367C47.9374 18.9718 47.9127 18.8399 47.8632 18.741C47.8138 18.6256 47.7231 18.5432 47.5912 18.4937C47.4594 18.4278 47.2533 18.3948 46.9731 18.3948C46.2642 18.3948 45.613 18.5679 45.0196 18.9141C44.4426 19.2603 43.9398 19.7301 43.5112 20.3236C43.0991 20.9006 42.7694 21.5517 42.5221 22.2771C42.2913 23.0024 42.1759 23.7442 42.1759 24.5025C42.1759 25.8049 42.4974 26.8105 43.1403 27.5193C43.7832 28.2117 44.6569 28.5579 45.7614 28.5579C46.3384 28.5579 46.8164 28.5002 47.1956 28.3848C47.5748 28.2694 47.8797 28.1293 48.1105 27.9644C48.3413 27.7831 48.5474 27.61 48.7287 27.4451C48.9265 27.2803 49.1244 27.1402 49.3222 27.0248C49.5365 26.8929 49.792 26.8269 50.0887 26.8269C50.5503 26.8269 50.88 26.9588 51.0778 27.2226C51.2921 27.4863 51.3993 27.849 51.3993 28.3106C51.3993 28.7722 51.2674 29.2338 51.0037 29.6953C50.7564 30.1569 50.3772 30.5773 49.8662 30.9565C49.3716 31.3356 48.7617 31.6406 48.0363 31.8714C47.311 32.0857 46.4867 32.1928 45.5636 32.1928ZM55.3673 32.2423C55.0211 32.2423 54.6914 32.1434 54.3782 31.9456C54.065 31.7642 53.8177 31.5252 53.6364 31.2285C53.455 30.9152 53.3644 30.5855 53.3644 30.2394C53.3644 29.8602 53.4715 29.3821 53.6858 28.8052C53.9166 28.2117 54.1969 27.577 54.5266 26.9011C54.8563 26.2088 55.186 25.5329 55.5157 24.8735C55.7959 24.313 56.1009 23.7607 56.4306 23.2167C56.7768 22.6562 57.123 22.1287 57.4691 21.6341C57.8318 21.1231 58.1615 20.678 58.4583 20.2989C58.7715 19.9032 59.1424 19.5818 59.571 19.3345C59.9996 19.0707 60.4777 18.9388 61.0052 18.9388C61.5657 18.9388 61.9943 19.079 62.291 19.3592C62.6042 19.6395 62.9092 20.0846 63.2059 20.6945C63.4038 21.1231 63.6016 21.6094 63.7994 22.1534C64.0137 22.6974 64.228 23.2579 64.4423 23.8349C64.6731 24.4119 64.9039 24.9806 65.1347 25.5411C65.4479 26.2335 65.7117 26.794 65.926 27.2226C66.1403 27.6347 66.3299 27.9727 66.4947 28.2364C66.6596 28.4837 66.8079 28.7062 66.9398 28.9041C67.1376 29.1678 67.2778 29.3986 67.3602 29.5964C67.4591 29.7778 67.5086 30.0168 67.5086 30.3135C67.5086 30.6597 67.4179 30.9812 67.2365 31.2779C67.0552 31.5582 66.8244 31.7807 66.5442 31.9456C66.2639 32.1269 65.9507 32.2176 65.6045 32.2176C65.2419 32.2176 64.8957 32.1104 64.566 31.8961C64.2363 31.6818 63.9313 31.3933 63.651 31.0306C63.3873 30.668 63.1483 30.2641 62.9339 29.819C62.7361 29.4563 62.5053 28.97 62.2416 28.3601C61.9778 27.7336 61.7058 27.0742 61.4256 26.3818C61.1618 25.673 60.9145 24.9971 60.6837 24.3542C60.4529 23.7113 60.2799 23.1837 60.1645 22.7716L61.3514 22.5985C61.1041 22.8788 60.7909 23.3156 60.4117 23.9091C60.0326 24.5025 59.6369 25.1949 59.2248 25.9862C58.8127 26.7775 58.417 27.5853 58.0379 28.4095C57.6752 29.2173 57.3702 29.9756 57.123 30.6844C56.9416 31.1955 56.7026 31.5829 56.4059 31.8466C56.1256 32.1104 55.7794 32.2423 55.3673 32.2423ZM76.4992 32.2423C75.065 32.2423 73.7956 31.9538 72.6911 31.3768C71.5866 30.7998 70.7129 30.0086 70.07 29.003C69.4435 27.9809 69.1303 26.8187 69.1303 25.5164C69.1303 24.6756 69.3117 23.8679 69.6743 23.0931C70.037 22.3183 70.5068 21.6259 71.0838 21.016C71.6773 20.406 72.3284 19.9279 73.0373 19.5818C73.7462 19.2191 74.4385 19.0378 75.1144 19.0378C75.3947 19.0378 75.6584 19.0872 75.9057 19.1861C76.1695 19.2685 76.3755 19.4087 76.5239 19.6065C76.6723 19.7878 76.7464 20.0433 76.7464 20.373C76.7464 20.9665 76.6228 21.4858 76.3755 21.9309C76.1447 22.376 75.6584 22.7222 74.9166 22.9694C74.5539 23.1343 74.216 23.3486 73.9028 23.6124C73.606 23.8761 73.367 24.1811 73.1857 24.5273C73.0043 24.8735 72.9137 25.2361 72.9137 25.6153C72.9137 26.5549 73.2269 27.3133 73.8533 27.8902C74.4797 28.4672 75.3205 28.7557 76.3755 28.7557C77.2657 28.7557 77.9911 28.4672 78.5515 27.8902C79.112 27.3133 79.3923 26.5467 79.3923 25.5906C79.3923 24.7663 79.1533 24.1069 78.6752 23.6124C78.1971 23.1013 77.5707 22.8458 76.7959 22.8458C76.4167 22.8458 76.0953 22.9447 75.8315 23.1425C75.5842 23.3404 75.2957 23.6041 74.966 23.9338C74.7353 24.1811 74.5292 24.3789 74.3479 24.5273C74.1665 24.6756 73.9852 24.791 73.8038 24.8735C73.639 24.9394 73.4247 24.9724 73.1609 24.9724C72.8642 24.9724 72.6004 24.857 72.3696 24.6262C72.1553 24.3954 72.0482 23.9585 72.0482 23.3156C72.0482 22.854 72.1718 22.3842 72.4191 21.9062C72.6829 21.4281 73.0208 20.9912 73.4329 20.5956C73.8615 20.1999 74.3396 19.8867 74.8671 19.6559C75.3947 19.4087 75.9222 19.285 76.4497 19.285C77.8509 19.285 79.0461 19.5405 80.0352 20.0516C81.0408 20.5461 81.8073 21.255 82.3349 22.1782C82.8624 23.1013 83.1262 24.1976 83.1262 25.4669C83.1262 26.7528 82.8294 27.9067 82.236 28.9288C81.659 29.9509 80.8677 30.7586 79.8621 31.3521C78.873 31.9456 77.752 32.2423 76.4992 32.2423ZM91.2378 32.4154C90.3476 32.4154 89.5728 32.2753 88.9134 31.995C88.254 31.7148 87.7017 31.3274 87.2566 30.8328C86.8115 30.3218 86.4818 29.7448 86.2675 29.1019C86.0532 28.4425 85.9461 27.7419 85.9461 27C85.9461 26.2747 85.9873 25.4752 86.0697 24.6015C86.1686 23.7113 86.3087 22.8623 86.4901 22.0545C86.6879 21.2467 86.9517 20.5709 87.2814 20.0269C87.4132 19.7961 87.6111 19.5982 87.8748 19.4334C88.1386 19.2685 88.4353 19.1449 88.765 19.0625C89.1112 18.9636 89.4491 18.9141 89.7788 18.9141C90.125 18.9141 90.4053 19.0213 90.6196 19.2356C90.8339 19.4334 90.941 19.7631 90.941 20.2247C90.941 20.5214 90.8751 20.8923 90.7432 21.3374C90.6113 21.766 90.4465 22.2771 90.2487 22.8705C90.0673 23.4475 89.9107 24.0987 89.7788 24.824C89.647 25.5329 89.581 26.3159 89.581 27.1731C89.581 27.816 89.7129 28.3765 89.9767 28.8546C90.2404 29.3327 90.6855 29.5717 91.312 29.5717C91.79 29.5717 92.2516 29.4646 92.6967 29.2502C93.1418 29.0195 93.521 28.7062 93.8342 28.3106C94.1474 27.915 94.3617 27.4699 94.4771 26.9753L94.7738 27.4451C94.5265 27.3627 94.1721 27.2803 93.7105 27.1979C93.2654 27.0989 92.7709 27.0165 92.2269 26.9506C91.6994 26.8846 91.1718 26.8269 90.6443 26.7775C90.1333 26.728 89.6882 26.7115 89.309 26.728L89.5068 24.6756C90.0014 24.6756 90.5042 24.6015 91.0152 24.4531C91.5427 24.2882 92.0208 24.0987 92.4494 23.8844C92.8945 23.6536 93.2489 23.4145 93.5127 23.1673C93.793 22.9035 93.9331 22.6645 93.9331 22.4502C93.9331 22.2688 93.8342 22.1369 93.6363 22.0545C93.455 21.9556 93.183 21.9062 92.8203 21.9062C92.2104 21.9062 91.6499 21.9803 91.1389 22.1287C90.6443 22.2606 90.191 22.4089 89.7788 22.5738C89.3667 22.7222 88.9876 22.8211 88.6414 22.8705C88.3117 22.887 88.0232 22.8046 87.7759 22.6233C87.5451 22.4254 87.4297 22.1452 87.4297 21.7825C87.4462 21.3704 87.6111 21.016 87.9243 20.7192C88.254 20.406 88.6579 20.167 89.1359 20.0021C90.0426 19.6724 90.9163 19.4581 91.7571 19.3592C92.5978 19.2438 93.3726 19.1861 94.0814 19.1861C94.8727 19.1861 95.5486 19.2685 96.1091 19.4334C96.6861 19.5982 97.1229 19.8538 97.4197 20.1999C97.7329 20.5296 97.8895 20.9418 97.8895 21.4363C97.8895 21.9803 97.7246 22.5079 97.3949 23.0189C97.0652 23.5134 96.6037 23.975 96.0102 24.4036C95.4167 24.8323 94.7326 25.2196 93.9578 25.5658C93.183 25.8955 92.3423 26.1511 91.4356 26.3324L92.0291 24.6015C92.8039 24.585 93.5539 24.6179 94.2793 24.7004C95.0046 24.7663 95.664 24.8899 96.2575 25.0713C96.8509 25.2526 97.3125 25.5081 97.6422 25.8378C97.9884 26.1675 98.1615 26.5962 98.1615 27.1237C98.1615 27.7666 97.9719 28.4013 97.5928 29.0277C97.2136 29.6541 96.6943 30.2229 96.0349 30.7339C95.3755 31.2449 94.6337 31.6488 93.8094 31.9456C92.9852 32.2588 92.128 32.4154 91.2378 32.4154ZM103.663 32.2176C103.119 32.2176 102.641 32.0445 102.229 31.6983C101.817 31.3521 101.487 30.874 101.24 30.2641C101.009 29.6376 100.894 28.9041 100.894 28.0633C100.894 27.3874 100.968 26.8105 101.116 26.3324C101.265 25.8378 101.454 25.4422 101.685 25.1455C101.916 24.8323 102.139 24.5932 102.353 24.4284C102.518 24.2965 102.715 24.2058 102.946 24.1564C103.177 24.0904 103.424 24.0575 103.688 24.0575C104.892 24.0575 106.136 23.9998 107.422 23.8844C108.708 23.769 109.878 23.5052 110.933 23.0931L112.096 26.0604C111.271 26.4231 110.373 26.7033 109.4 26.9011C108.444 27.0825 107.455 27.2061 106.433 27.272C105.427 27.3215 104.446 27.3462 103.49 27.3462L101.388 26.6786C101.405 26.0357 101.413 25.3845 101.413 24.7251C101.43 24.0492 101.446 23.398 101.463 22.7716C101.479 22.1287 101.487 21.527 101.487 20.9665C101.487 20.4225 101.586 19.9527 101.784 19.557C101.998 19.1614 102.345 18.9636 102.823 18.9636C103.63 18.9636 104.232 19.2108 104.628 19.7054C105.023 20.1835 105.221 20.8511 105.221 21.7083C105.221 22.104 105.205 22.5491 105.172 23.0436C105.139 23.5217 105.106 24.0162 105.073 24.5273C105.056 25.0383 105.032 25.5246 104.999 25.9862C104.966 26.4313 104.949 26.8105 104.949 27.1237C104.949 27.7007 104.949 28.2776 104.949 28.8546C104.949 29.4151 104.949 30.0498 104.949 30.7586C104.949 31.1708 104.826 31.5169 104.578 31.7972C104.348 32.0774 104.043 32.2176 103.663 32.2176ZM112.343 32.2176C111.716 32.2176 111.222 31.9703 110.859 31.4757C110.513 30.9812 110.257 30.3218 110.093 29.4975C109.944 28.6733 109.87 27.7583 109.87 26.7528C109.87 25.1702 109.911 23.8844 109.994 22.8953C110.076 21.9062 110.167 21.1314 110.266 20.5709C110.365 20.0928 110.612 19.6972 111.007 19.3839C111.403 19.0707 111.84 18.9141 112.318 18.9141C112.78 18.9141 113.167 19.0872 113.48 19.4334C113.81 19.7631 113.975 20.1505 113.975 20.5956C113.975 21.1891 113.909 21.8649 113.777 22.6233C113.662 23.3651 113.604 24.2635 113.604 25.3186C113.604 26.1263 113.645 26.8434 113.728 27.4699C113.826 28.0963 113.917 28.6568 114 29.1513C114.082 29.6294 114.123 30.091 114.123 30.5361C114.123 30.9812 113.958 31.3768 113.629 31.723C113.299 32.0527 112.87 32.2176 112.343 32.2176ZM120.572 32.2423C119.913 32.2423 119.361 32.1104 118.916 31.8466C118.487 31.5664 118.141 31.1955 117.877 30.7339C117.63 30.2558 117.449 29.7283 117.333 29.1513C117.218 28.5579 117.16 27.9479 117.16 27.3215C117.16 26.8105 117.177 26.25 117.209 25.64C117.259 25.0136 117.317 24.3954 117.383 23.7854C117.449 23.1755 117.514 22.6068 117.58 22.0792C117.646 21.5517 117.712 21.1314 117.778 20.8181C117.877 20.2412 118.058 19.8125 118.322 19.5323C118.586 19.2356 118.891 19.0872 119.237 19.0872C119.616 19.0872 119.971 19.1779 120.3 19.3592C120.647 19.5241 120.927 19.7466 121.141 20.0269C121.355 20.3071 121.463 20.6203 121.463 20.9665C121.463 21.2138 121.43 21.56 121.364 22.0051C121.298 22.4337 121.224 22.9117 121.141 23.4393C121.059 23.9503 120.985 24.4778 120.919 25.0218C120.853 25.5494 120.82 26.0604 120.82 26.5549C120.82 26.8517 120.828 27.1484 120.844 27.4451C120.877 27.7254 120.935 27.9644 121.018 28.1622C121.1 28.3601 121.24 28.459 121.438 28.459C121.834 28.459 122.246 28.1375 122.674 27.4946C123.119 26.8517 123.564 26.0357 124.01 25.0466C124.372 24.3047 124.669 23.5794 124.9 22.8705C125.147 22.1617 125.378 21.527 125.592 20.9665C125.806 20.3895 126.045 19.9279 126.309 19.5818C126.589 19.2356 126.952 19.0625 127.397 19.0625C128.073 19.0625 128.592 19.2521 128.955 19.6312C129.334 19.9939 129.557 20.4555 129.623 21.016C129.705 21.4446 129.796 21.9803 129.895 22.6233C130.01 23.2662 130.134 23.9008 130.266 24.5273C130.398 25.1372 130.513 25.6153 130.612 25.9615C130.81 26.7198 131.032 27.338 131.279 27.816C131.527 28.2941 131.741 28.7145 131.922 29.0772C132.104 29.4398 132.194 29.8107 132.194 30.1899C132.194 30.5361 132.104 30.8575 131.922 31.1543C131.741 31.451 131.494 31.6983 131.181 31.8961C130.884 32.0774 130.554 32.1681 130.191 32.1681C129.466 32.1681 128.897 31.7972 128.485 31.0554C128.073 30.3135 127.686 29.2915 127.323 27.9891C127.175 27.3792 127.026 26.761 126.878 26.1346C126.746 25.5081 126.622 24.8899 126.507 24.28C126.408 23.6701 126.317 23.1013 126.235 22.5738L127.991 22.3018C127.875 22.6809 127.677 23.2909 127.397 24.1316C127.133 24.9559 126.812 25.8955 126.433 26.9506C125.988 28.1045 125.444 29.0772 124.801 29.8684C124.174 30.6597 123.49 31.2532 122.748 31.6488C122.023 32.0445 121.298 32.2423 120.572 32.2423ZM146.051 32.267C145.54 32.267 144.922 32.1269 144.197 31.8466C143.471 31.5664 142.73 31.212 141.971 30.7834C141.213 30.3383 140.496 29.8684 139.82 29.3739C139.161 28.8793 138.633 28.426 138.237 28.0139C137.908 27.7007 137.644 27.3627 137.446 27C137.265 26.6374 137.174 26.2665 137.174 25.8873C137.174 25.5741 137.24 25.2609 137.372 24.9476C137.504 24.6344 137.718 24.313 138.015 23.9833C138.196 23.769 138.501 23.4557 138.93 23.0436C139.358 22.6315 139.853 22.1946 140.413 21.7331C140.99 21.255 141.6 20.8099 142.243 20.3978C142.903 19.9692 143.562 19.623 144.221 19.3592C144.881 19.079 145.499 18.9388 146.076 18.9388C146.422 18.9388 146.727 19.0295 146.991 19.2108C147.271 19.3922 147.486 19.623 147.634 19.9032C147.782 20.1835 147.856 20.472 147.856 20.7687C147.856 21.2303 147.667 21.6341 147.288 21.9803C146.925 22.3265 146.48 22.6068 145.952 22.8211C145.029 23.1837 144.213 23.5711 143.504 23.9833C142.812 24.3789 142.276 24.7333 141.897 25.0466C141.534 25.3598 141.353 25.5823 141.353 25.7142C141.353 25.8626 141.567 26.0934 141.996 26.4066C142.441 26.7198 143.026 27.066 143.752 27.4451C144.493 27.8078 145.31 28.1457 146.2 28.459C146.513 28.5744 146.81 28.7227 147.09 28.9041C147.387 29.0689 147.626 29.2585 147.807 29.4728C147.988 29.6871 148.079 29.9344 148.079 30.2146C148.079 30.5443 147.988 30.8658 147.807 31.179C147.642 31.4922 147.411 31.7477 147.115 31.9456C146.818 32.1599 146.463 32.267 146.051 32.267ZM136.729 32.1928C136.152 32.1928 135.715 31.962 135.418 31.5005C135.122 31.0389 134.924 30.3795 134.825 29.5223C134.743 28.6485 134.701 27.6017 134.701 26.3818C134.701 25.9697 134.718 25.4834 134.751 24.9229C134.8 24.3624 134.85 23.7854 134.899 23.192C134.949 22.5985 134.973 22.0628 134.973 21.5847C134.973 21.4528 134.965 21.3127 134.949 21.1643C134.949 20.9995 134.949 20.8429 134.949 20.6945C134.949 20.2989 135.056 19.9692 135.27 19.7054C135.484 19.4416 135.748 19.2521 136.061 19.1367C136.375 19.0048 136.671 18.9388 136.952 18.9388C137.562 18.9388 138.007 19.1614 138.287 19.6065C138.567 20.0516 138.707 20.6203 138.707 21.3127C138.707 21.8732 138.674 22.4584 138.608 23.0683C138.542 23.6783 138.476 24.2718 138.411 24.8487C138.361 25.4092 138.336 25.9203 138.336 26.3818C138.336 27.1896 138.369 27.8655 138.435 28.4095C138.518 28.937 138.592 29.3821 138.658 29.7448C138.724 30.1075 138.757 30.4289 138.757 30.7092C138.757 31.0389 138.65 31.3191 138.435 31.5499C138.237 31.7642 137.982 31.9208 137.669 32.0197C137.372 32.1351 137.059 32.1928 136.729 32.1928Z" fill="white"/>
</g>
<defs>
<filter id="filter0_di_42_15" x="0.341783" y="0.578163" width="187.789" height="50.6802" filterUnits="userSpaceOnUse" color-interpolation-filters="sRGB">
<feFlood flood-opacity="0" result="BackgroundImageFix"/>
<feColorMatrix in="SourceAlpha" type="matrix" values="0 0 0 0 0 0 0 0 0 0 0 0 0 0 0 0 0 0 127 0" result="hardAlpha"/>
<feMorphology radius="0.61819" operator="dilate" in="SourceAlpha" result="effect1_dropShadow_42_15"/>
<feOffset dx="1.23638" dy="2.47276"/>
<feGaussianBlur stdDeviation="1.6382"/>
<feComposite in2="hardAlpha" operator="out"/>
<feColorMatrix type="matrix" values="0 0 0 0 0.0429688 0 0 0 0 0.437654 0 0 0 0 0.6875 0 0 0 0.5 0"/>
<feBlend mode="normal" in2="BackgroundImageFix" result="effect1_dropShadow_42_15"/>
<feBlend mode="normal" in="SourceGraphic" in2="effect1_dropShadow_42_15" result="shape"/>
<feColorMatrix in="SourceAlpha" type="matrix" values="0 0 0 0 0 0 0 0 0 0 0 0 0 0 0 0 0 0 127 0" result="hardAlpha"/>
<feMorphology radius="1.85457" operator="erode" in="SourceAlpha" result="effect2_innerShadow_42_15"/>
<feOffset dy="4.94552"/>
<feGaussianBlur stdDeviation="2.90549"/>
<feComposite in2="hardAlpha" operator="arithmetic" k2="-1" k3="1"/>
<feColorMatrix type="matrix" values="0 0 0 0 1 0 0 0 0 1 0 0 0 0 1 0 0 0 0.75 0"/>
<feBlend mode="normal" in2="shape" result="effect2_innerShadow_42_15"/>
</filter>
<linearGradient id="paint0_linear_42_15" x1="93" y1="44.891" x2="93" y2="2" gradientUnits="userSpaceOnUse">
<stop stop-color="#A5DBFD"/>
<stop offset="1" stop-color="#2592D7"/>
</linearGradient>
<radialGradient id="paint1_radial_42_15" cx="0" cy="0" r="1" gradientUnits="userSpaceOnUse" gradientTransform="translate(20.6987 14.1063) scale(6.77824 6.00585)">
<stop stop-color="white"/>
<stop offset="0.87" stop-color="white" stop-opacity="0.95"/>
<stop offset="1" stop-color="white" stop-opacity="0"/>
</radialGradient>
</defs>
</svg>
