<svg width="259" height="76" viewBox="0 0 259 76" fill="none" xmlns="http://www.w3.org/2000/svg">
<g filter="url(#filter0_di_1_15)">
<rect x="5" y="3" width="245" height="62" rx="31" fill="#FD7B9F"/>
<rect x="5" y="3" width="245" height="62" rx="31" fill="url(#paint0_linear_1_15)"/>
<rect x="5" y="3" width="245" height="62" rx="31" fill="url(#paint1_radial_1_15)" fill-opacity="0.8"/>
<rect x="6.5" y="4.5" width="242" height="59" rx="29.5" stroke="#E4648B" stroke-width="3"/>
<path d="M74.4138 47.32C73.5604 47.32 72.9604 47.1467 72.6138 46.8C72.2671 46.4533 72.0938 45.8933 72.0938 45.12V22.16C72.0938 21.6267 72.2938 21.1733 72.6938 20.8C73.0938 20.4 73.5471 20.2 74.0538 20.2H80.8537C82.7738 20.2 84.4138 20.5333 85.7738 21.2C87.1604 21.84 88.2004 22.7067 88.8938 23.8C89.5871 24.8667 89.9338 26.0267 89.9338 27.28C89.9338 29.28 89.3204 30.9467 88.0938 32.28C89.4538 32.92 90.4671 33.7733 91.1337 34.84C91.8004 35.88 92.1338 37.1733 92.1338 38.72C92.1338 41.4933 90.6538 43.6267 87.6938 45.12C84.7338 46.5867 80.3071 47.32 74.4138 47.32ZM82.2138 31.04C83.3071 31.04 84.2004 30.6667 84.8938 29.92C85.6138 29.1467 85.9738 28.28 85.9738 27.32C85.9738 26.3867 85.5204 25.6133 84.6138 25C83.7338 24.36 82.4804 24.04 80.8537 24.04H76.0938V31.04H82.2138ZM76.0938 43.52C79.6404 43.4667 82.5338 43.04 84.7738 42.24C87.0404 41.44 88.1738 40.2667 88.1738 38.72C88.1738 37.5733 87.6538 36.6533 86.6138 35.96C85.5738 35.24 84.1071 34.88 82.2138 34.88H76.0938V43.52ZM102.627 47.36C101.187 47.36 100.04 47.0533 99.1869 46.44C98.3335 45.8 97.6935 44.6533 97.2669 43C96.8402 41.3467 96.6269 38.9733 96.6269 35.88C96.6269 34.84 96.6669 33.6933 96.7469 32.44C96.8269 31.1867 96.9335 30.1333 97.0669 29.28C97.1735 28.6133 97.3735 28.1067 97.6669 27.76C97.9602 27.4133 98.3869 27.24 98.9469 27.24C99.4802 27.24 99.9335 27.4 100.307 27.72C100.68 28.04 100.867 28.5067 100.867 29.12L100.787 30.24C100.52 32.5067 100.387 34.68 100.387 36.76C100.387 39.48 100.614 41.3333 101.067 42.32C101.547 43.28 102.2 43.76 103.027 43.76C103.987 43.76 104.974 43.5067 105.987 43C107 42.4667 107.72 41.96 108.147 41.48C108.307 41.32 108.387 40.9867 108.387 40.48L108.467 29.08C108.467 28.5467 108.654 28.1067 109.027 27.76C109.427 27.4133 109.867 27.24 110.347 27.24C110.854 27.24 111.294 27.4133 111.667 27.76C112.067 28.1067 112.267 28.5467 112.267 29.08V45.32C112.267 45.8267 112.067 46.28 111.667 46.68C111.294 47.0533 110.854 47.24 110.347 47.24C109.814 47.24 109.334 47.08 108.907 46.76C108.507 46.4133 108.307 45.9867 108.307 45.48V45.04C107.294 45.76 106.347 46.3333 105.467 46.76C104.614 47.16 103.667 47.36 102.627 47.36ZM122.13 47.28C121.623 47.28 121.17 47.0933 120.77 46.72C120.397 46.3467 120.21 45.9067 120.21 45.4V31.12H117.05C116.517 31.12 116.063 30.9333 115.69 30.56C115.317 30.16 115.13 29.7067 115.13 29.2C115.13 28.6133 115.33 28.1467 115.73 27.8C116.13 27.4267 116.597 27.24 117.13 27.24H120.21V22.96C120.21 22.4533 120.397 22 120.77 21.6C121.143 21.2 121.597 21 122.13 21C122.69 21 123.143 21.2 123.49 21.6C123.863 21.9733 124.05 22.4267 124.05 22.96V27.24H127.45C127.983 27.24 128.437 27.4267 128.81 27.8C129.183 28.1733 129.37 28.64 129.37 29.2C129.37 29.7067 129.183 30.16 128.81 30.56C128.437 30.9333 127.983 31.12 127.45 31.12H124.05V45.4C124.05 45.9067 123.863 46.3467 123.49 46.72C123.117 47.0933 122.663 47.28 122.13 47.28ZM136.055 47.28C135.548 47.28 135.095 47.0933 134.695 46.72C134.322 46.3467 134.135 45.9067 134.135 45.4V31.12H130.975C130.442 31.12 129.988 30.9333 129.615 30.56C129.242 30.16 129.055 29.7067 129.055 29.2C129.055 28.6133 129.255 28.1467 129.655 27.8C130.055 27.4267 130.522 27.24 131.055 27.24H134.135V22.96C134.135 22.4533 134.322 22 134.695 21.6C135.068 21.2 135.522 21 136.055 21C136.615 21 137.068 21.2 137.415 21.6C137.788 21.9733 137.975 22.4267 137.975 22.96V27.24H141.375C141.908 27.24 142.362 27.4267 142.735 27.8C143.108 28.1733 143.295 28.64 143.295 29.2C143.295 29.7067 143.108 30.16 142.735 30.56C142.362 30.9333 141.908 31.12 141.375 31.12H137.975V45.4C137.975 45.9067 137.788 46.3467 137.415 46.72C137.042 47.0933 136.588 47.28 136.055 47.28ZM152.483 47.24C150.963 47.24 149.563 46.8267 148.283 46C147.03 45.1733 146.043 44.0533 145.323 42.64C144.603 41.2 144.243 39.64 144.243 37.96C144.243 36.0667 144.67 34.3067 145.523 32.68C146.377 31.0267 147.523 29.72 148.963 28.76C150.403 27.7733 151.95 27.28 153.603 27.28C155.123 27.28 156.51 27.7067 157.763 28.56C159.043 29.4133 160.043 30.5467 160.763 31.96C161.51 33.3733 161.883 34.8933 161.883 36.52C161.883 38.44 161.457 40.2267 160.603 41.88C159.75 43.5067 158.59 44.8133 157.123 45.8C155.683 46.76 154.137 47.24 152.483 47.24ZM152.483 43.64C153.417 43.64 154.31 43.32 155.163 42.68C156.017 42.04 156.697 41.1867 157.203 40.12C157.71 39.0533 157.963 37.92 157.963 36.72C157.963 35.7067 157.763 34.76 157.363 33.88C156.963 32.9733 156.417 32.2533 155.723 31.72C155.03 31.16 154.27 30.88 153.443 30.88C152.51 30.88 151.63 31.2133 150.803 31.88C150.003 32.52 149.363 33.3867 148.883 34.48C148.403 35.5467 148.163 36.6933 148.163 37.92C148.163 39.12 148.363 40.1467 148.763 41C149.19 41.8533 149.723 42.5067 150.363 42.96C151.03 43.4133 151.737 43.64 152.483 43.64ZM168.908 47.24C168.401 47.24 167.948 47.0533 167.548 46.68C167.174 46.3067 166.988 45.88 166.988 45.4V29.16C166.988 28.6267 167.188 28.1733 167.588 27.8C167.988 27.4267 168.454 27.24 168.988 27.24C169.494 27.24 169.921 27.4267 170.268 27.8C170.641 28.1733 170.828 28.6267 170.828 29.16V32.2C171.574 30.6 172.521 29.3867 173.668 28.56C174.814 27.7067 176.068 27.28 177.428 27.28C178.921 27.28 180.108 27.6267 180.988 28.32C181.868 29.0133 182.508 30.16 182.908 31.76C183.308 33.3333 183.508 35.52 183.508 38.32L183.468 45.32C183.468 45.8267 183.294 46.28 182.948 46.68C182.601 47.0533 182.161 47.24 181.628 47.24C181.121 47.24 180.668 47.0533 180.268 46.68C179.894 46.28 179.708 45.84 179.708 45.36V38.72C179.708 36.64 179.614 35.04 179.428 33.92C179.241 32.8 178.961 32.04 178.588 31.64C178.214 31.2133 177.708 31 177.068 31C176.268 31 175.468 31.3467 174.668 32.04C173.868 32.7067 173.121 33.6667 172.428 34.92C171.814 36.0133 171.388 37.08 171.148 38.12C170.908 39.16 170.788 40.4133 170.788 41.88V45.24C170.788 45.8267 170.614 46.3067 170.268 46.68C169.948 47.0533 169.494 47.24 168.908 47.24Z" fill="white"/>
</g>
<defs>
<filter id="filter0_di_1_15" x="0.7" y="0.7" width="257.6" height="74.6" filterUnits="userSpaceOnUse" color-interpolation-filters="sRGB">
<feFlood flood-opacity="0" result="BackgroundImageFix"/>
<feColorMatrix in="SourceAlpha" type="matrix" values="0 0 0 0 0 0 0 0 0 0 0 0 0 0 0 0 0 0 127 0" result="hardAlpha"/>
<feMorphology radius="1" operator="dilate" in="SourceAlpha" result="effect1_dropShadow_1_15"/>
<feOffset dx="2" dy="4"/>
<feGaussianBlur stdDeviation="2.65"/>
<feComposite in2="hardAlpha" operator="out"/>
<feColorMatrix type="matrix" values="0 0 0 0 0.645833 0 0 0 0 0.161458 0 0 0 0 0.307685 0 0 0 0.5 0"/>
<feBlend mode="normal" in2="BackgroundImageFix" result="effect1_dropShadow_1_15"/>
<feBlend mode="normal" in="SourceGraphic" in2="effect1_dropShadow_1_15" result="shape"/>
<feColorMatrix in="SourceAlpha" type="matrix" values="0 0 0 0 0 0 0 0 0 0 0 0 0 0 0 0 0 0 127 0" result="hardAlpha"/>
<feMorphology radius="3" operator="erode" in="SourceAlpha" result="effect2_innerShadow_1_15"/>
<feOffset dy="8"/>
<feGaussianBlur stdDeviation="4.7"/>
<feComposite in2="hardAlpha" operator="arithmetic" k2="-1" k3="1"/>
<feColorMatrix type="matrix" values="0 0 0 0 1 0 0 0 0 1 0 0 0 0 1 0 0 0 0.75 0"/>
<feBlend mode="normal" in2="shape" result="effect2_innerShadow_1_15"/>
</filter>
<linearGradient id="paint0_linear_1_15" x1="127.5" y1="65" x2="127.5" y2="3" gradientUnits="userSpaceOnUse">
<stop stop-color="#FFB3D2" stop-opacity="0"/>
<stop offset="1" stop-color="#FFC1DB"/>
</linearGradient>
<radialGradient id="paint1_radial_1_15" cx="0" cy="0" r="1" gradientUnits="userSpaceOnUse" gradientTransform="translate(29.09 20.5) scale(9.22594 8.6816)">
<stop stop-color="white"/>
<stop offset="0.87" stop-color="white" stop-opacity="0.95"/>
<stop offset="1" stop-color="white" stop-opacity="0"/>
</radialGradient>
</defs>
</svg>
