<svg width="209" height="54" viewBox="0 0 209 54" fill="none" xmlns="http://www.w3.org/2000/svg">
<g filter="url(#filter0_di_42_46)">
<rect x="3" y="2" width="200" height="45" rx="22.5" fill="#2996DB"/>
<rect x="3" y="2" width="200" height="45" rx="22.5" fill="url(#paint0_linear_42_46)"/>
<rect x="3" y="2" width="200" height="45" rx="22.5" fill="url(#paint1_radial_42_46)" fill-opacity="0.8"/>
<rect x="3.92729" y="2.92729" width="198.145" height="43.1454" rx="21.5727" stroke="#2592D7" stroke-width="1.85457"/>
<path d="M52.2611 33.272C51.783 33.272 51.1978 33.1649 50.5054 32.9505C49.8131 32.7362 49.0877 32.4395 48.3294 32.0604C47.5711 31.6812 46.8293 31.2443 46.1039 30.7498C45.3786 30.2552 44.7109 29.7277 44.101 29.1672C43.5075 28.5902 43.0377 28.005 42.6915 27.4116C42.3453 26.8181 42.1722 26.2494 42.1722 25.7054C42.1722 24.8976 42.3453 24.0733 42.6915 23.2326C43.0377 22.3754 43.4993 21.5346 44.0763 20.7104C44.6697 19.8696 45.3291 19.0866 46.0545 18.3613C46.7798 17.6194 47.5052 16.9683 48.2305 16.4078C48.7086 16.0286 49.1207 15.7731 49.4669 15.6412C49.8295 15.4929 50.1757 15.4187 50.5054 15.4187C51.033 15.4187 51.4616 15.567 51.7913 15.8638C52.121 16.144 52.2858 16.5644 52.2858 17.1249C52.2858 17.5865 52.1375 18.0068 51.8407 18.386C51.5605 18.7487 51.1071 19.1608 50.4807 19.6224C49.8378 20.051 49.2278 20.5208 48.6509 21.0318C48.0904 21.5264 47.5958 22.0292 47.1672 22.5402C46.7386 23.0513 46.4007 23.5293 46.1534 23.9744C45.9061 24.403 45.7825 24.7657 45.7825 25.0624C45.7825 25.3097 45.9638 25.6394 46.3265 26.0515C46.6891 26.4637 47.1837 26.884 47.8101 27.3127C48.4366 27.7413 49.1454 28.1534 49.9367 28.549C50.728 28.9282 51.5522 29.2414 52.4095 29.4887C52.9864 29.6535 53.3986 29.9008 53.6458 30.2305C53.9096 30.5602 54.0415 30.9888 54.0415 31.5163C54.0415 32.0439 53.9014 32.4725 53.6211 32.8022C53.3574 33.1154 52.904 33.272 52.2611 33.272ZM41.1831 33.2967C40.5732 33.2967 40.0951 33.1401 39.7489 32.8269C39.4027 32.5137 39.1555 31.9944 39.0071 31.2691C38.8752 30.5437 38.8093 29.5793 38.8093 28.3759C38.8093 27.1066 38.8505 25.9114 38.9329 24.7904C39.0318 23.6695 39.1225 22.6721 39.2049 21.7984C39.3038 20.9082 39.3533 20.1911 39.3533 19.6471C39.3533 19.1361 39.3286 18.7239 39.2791 18.4107C39.2461 18.081 39.2049 17.8008 39.1555 17.57C39.1225 17.3227 39.106 17.0672 39.106 16.8034C39.106 16.3583 39.2214 16.0204 39.4522 15.7896C39.683 15.5423 40.0704 15.4187 40.6144 15.4187C41.1749 15.4187 41.62 15.5506 41.9497 15.8143C42.2959 16.0616 42.5514 16.3831 42.7162 16.7787C42.8811 17.1743 42.9882 17.6029 43.0377 18.0645C43.1036 18.5261 43.1366 18.9547 43.1366 19.3504C43.1366 20.0592 43.0872 20.8835 42.9882 21.8231C42.8893 22.7463 42.7904 23.7436 42.6915 24.8152C42.6091 25.8867 42.5679 26.9747 42.5679 28.0792C42.5679 28.5738 42.5761 28.9941 42.5926 29.3403C42.6256 29.6865 42.6585 29.9915 42.6915 30.2552C42.741 30.519 42.7739 30.7745 42.7904 31.0218C42.8234 31.2691 42.8399 31.5246 42.8399 31.7883C42.8399 32.2664 42.6915 32.6373 42.3948 32.9011C42.0981 33.1649 41.6942 33.2967 41.1831 33.2967ZM59.5756 33.2473C58.7184 33.2473 57.9683 33.0907 57.3254 32.7775C56.6825 32.4478 56.1797 31.9944 55.817 31.4174C55.4544 30.824 55.273 30.1398 55.273 29.365C55.273 28.5243 55.4132 27.6671 55.6934 26.7934C55.9736 25.9197 56.361 25.0872 56.8556 24.2959C57.3501 23.5046 57.9189 22.7957 58.5618 22.1693C59.2212 21.5429 59.9218 21.0483 60.6636 20.6857C61.4055 20.323 62.1555 20.1416 62.9139 20.1416C63.5238 20.1416 64.0431 20.3395 64.4717 20.7351C64.9003 21.1308 65.1146 21.6912 65.1146 22.4166C65.1146 22.6803 65.0404 22.8864 64.8921 23.0348C64.7437 23.1831 64.5541 23.2821 64.3233 23.3315C63.2683 23.4964 62.3369 23.9085 61.5291 24.5679C60.7213 25.2108 60.0867 25.9856 59.6251 26.8923C59.1635 27.7825 58.9327 28.7139 58.9327 29.6865C58.9327 29.9667 58.9492 30.2305 58.9822 30.4778C59.0316 30.7086 59.1223 31.0053 59.2542 31.368L57.5727 28.8458C57.9683 29.1425 58.3145 29.3486 58.6113 29.464C58.9245 29.5629 59.2871 29.6123 59.6993 29.6123C60.54 29.6123 61.323 29.093 62.0484 28.0545C62.7737 26.9994 63.293 25.4581 63.6062 23.4304C63.6557 23.0348 63.8288 22.7298 64.1255 22.5155C64.4222 22.2847 64.7602 22.1693 65.1393 22.1693C65.7823 22.1693 66.3263 22.3424 66.7714 22.6886C67.2165 23.0348 67.5297 23.4634 67.711 23.9744C67.9913 24.7327 68.2468 25.4416 68.4776 26.101C68.7248 26.7439 69.0133 27.3703 69.343 27.9803C69.6892 28.5738 70.1508 29.1919 70.7278 29.8349C70.9421 30.0821 71.0492 30.3954 71.0492 30.7745C71.0657 31.1372 70.9998 31.5081 70.8514 31.8873C70.7031 32.2499 70.4805 32.5549 70.1838 32.8022C69.9035 33.0495 69.5573 33.1731 69.1452 33.1731C68.8485 33.1731 68.6094 33.1154 68.4281 33C68.2468 32.9011 68.0902 32.7692 67.9583 32.6044C67.5956 32.1757 67.2742 31.7554 66.9939 31.3433C66.7137 30.9146 66.4499 30.4695 66.2026 30.008C65.9718 29.5299 65.7493 29.0024 65.535 28.4254C65.3372 27.8319 65.1311 27.1478 64.9168 26.373L66.2274 26.2741C65.9141 27.5929 65.5103 28.6974 65.0157 29.5876C64.5212 30.4778 63.9771 31.1949 63.3837 31.7389C62.8067 32.2829 62.1885 32.6703 61.5291 32.9011C60.8862 33.1319 60.235 33.2473 59.5756 33.2473ZM72.683 24.3701C72.172 24.3701 71.7186 24.1887 71.323 23.8261C70.9438 23.4634 70.7542 23.0265 70.7542 22.5155C70.7542 22.1363 70.8532 21.8231 71.051 21.5758C71.2653 21.3286 71.5703 21.1308 71.9659 20.9824C72.5264 20.7516 73.3342 20.5373 74.3892 20.3395C75.4607 20.1416 76.8043 20.0427 78.4198 20.0427C79.343 20.0427 80.1755 20.0675 80.9173 20.1169C81.6591 20.1664 82.4504 20.2488 83.2911 20.3642C83.8681 20.4466 84.3215 20.628 84.6512 20.9082C84.9973 21.1884 85.1704 21.5594 85.1704 22.0209C85.1704 22.3177 85.0798 22.6144 84.8984 22.9111C84.7336 23.1914 84.5028 23.4222 84.2061 23.6035C83.9093 23.7684 83.5714 23.8508 83.1922 23.8508C82.912 23.8508 82.5081 23.8343 81.9806 23.8013C81.4695 23.7519 80.909 23.7024 80.2991 23.653C79.6892 23.6035 79.0874 23.5788 78.494 23.5788C77.373 23.5788 76.4581 23.6447 75.7492 23.7766C75.0404 23.892 74.4551 24.0239 73.9936 24.1722C73.532 24.3041 73.0951 24.3701 72.683 24.3701ZM78.1231 33.2967C77.7109 33.2967 77.373 33.1978 77.1092 33C76.862 32.8187 76.6312 32.5219 76.4169 32.1098C76.2355 31.7306 76.0872 31.2361 75.9718 30.6262C75.8729 30.0162 75.7987 29.3568 75.7492 28.6479C75.7163 27.9391 75.6998 27.2467 75.6998 26.5708C75.6998 25.4993 75.675 24.6009 75.6256 23.8755C75.5761 23.1337 75.5514 22.532 75.5514 22.0704L79.2853 21.8726C79.2853 21.988 79.2935 22.2517 79.31 22.6639C79.3265 23.076 79.343 23.5623 79.3595 24.1228C79.3759 24.6833 79.3924 25.2685 79.4089 25.8785C79.4254 26.4719 79.4336 27.0159 79.4336 27.5105C79.4336 28.071 79.4666 28.5655 79.5325 28.9941C79.5985 29.4063 79.6644 29.7689 79.7304 30.0821C79.8128 30.3954 79.887 30.6756 79.9529 30.9229C80.0189 31.1537 80.0518 31.3762 80.0518 31.5905C80.0518 31.9202 79.9447 32.217 79.7304 32.4807C79.5325 32.728 79.2853 32.9258 78.9885 33.0742C78.7083 33.2225 78.4198 33.2967 78.1231 33.2967ZM89.6873 33.2473C88.8301 33.2473 88.08 33.0907 87.4371 32.7775C86.7941 32.4478 86.2914 31.9944 85.9287 31.4174C85.566 30.824 85.3847 30.1398 85.3847 29.365C85.3847 28.5243 85.5248 27.6671 85.805 26.7934C86.0853 25.9197 86.4727 25.0872 86.9672 24.2959C87.4618 23.5046 88.0305 22.7957 88.6734 22.1693C89.3328 21.5429 90.0335 21.0483 90.7753 20.6857C91.5171 20.323 92.2672 20.1416 93.0255 20.1416C93.6355 20.1416 94.1547 20.3395 94.5833 20.7351C95.012 21.1308 95.2263 21.6912 95.2263 22.4166C95.2263 22.6803 95.1521 22.8864 95.0037 23.0348C94.8553 23.1831 94.6658 23.2821 94.435 23.3315C93.3799 23.4964 92.4485 23.9085 91.6408 24.5679C90.833 25.2108 90.1983 25.9856 89.7367 26.8923C89.2752 27.7825 89.0444 28.7139 89.0444 29.6865C89.0444 29.9667 89.0608 30.2305 89.0938 30.4778C89.1433 30.7086 89.2339 31.0053 89.3658 31.368L87.6843 28.8458C88.08 29.1425 88.4262 29.3486 88.7229 29.464C89.0361 29.5629 89.3988 29.6123 89.8109 29.6123C90.6517 29.6123 91.4347 29.093 92.16 28.0545C92.8854 26.9994 93.4047 25.4581 93.7179 23.4304C93.7673 23.0348 93.9404 22.7298 94.2372 22.5155C94.5339 22.2847 94.8718 22.1693 95.251 22.1693C95.8939 22.1693 96.4379 22.3424 96.883 22.6886C97.3281 23.0348 97.6413 23.4634 97.8227 23.9744C98.1029 24.7327 98.3584 25.4416 98.5892 26.101C98.8365 26.7439 99.125 27.3703 99.4547 27.9803C99.8009 28.5738 100.262 29.1919 100.839 29.8349C101.054 30.0821 101.161 30.3954 101.161 30.7745C101.177 31.1372 101.111 31.5081 100.963 31.8873C100.815 32.2499 100.592 32.5549 100.295 32.8022C100.015 33.0495 99.669 33.1731 99.2569 33.1731C98.9601 33.1731 98.7211 33.1154 98.5398 33C98.3584 32.9011 98.2018 32.7692 98.0699 32.6044C97.7073 32.1757 97.3858 31.7554 97.1056 31.3433C96.8253 30.9146 96.5615 30.4695 96.3143 30.008C96.0835 29.5299 95.8609 29.0024 95.6466 28.4254C95.4488 27.8319 95.2427 27.1478 95.0284 26.373L96.339 26.2741C96.0258 27.5929 95.6219 28.6974 95.1273 29.5876C94.6328 30.4778 94.0888 31.1949 93.4953 31.7389C92.9183 32.2829 92.3002 32.6703 91.6408 32.9011C90.9978 33.1319 90.3467 33.2473 89.6873 33.2473ZM114.826 33.3215C114.315 33.3215 113.697 33.1813 112.971 32.9011C112.246 32.6208 111.504 32.2664 110.746 31.8378C109.987 31.3927 109.27 30.9229 108.594 30.4283C107.935 29.9338 107.408 29.4804 107.012 29.0683C106.682 28.7551 106.418 28.4172 106.221 28.0545C106.039 27.6918 105.949 27.3209 105.949 26.9417C105.949 26.6285 106.015 26.3153 106.146 26.0021C106.278 25.6889 106.493 25.3674 106.789 25.0377C106.971 24.8234 107.276 24.5102 107.704 24.0981C108.133 23.6859 108.627 23.2491 109.188 22.7875C109.765 22.3094 110.375 21.8643 111.018 21.4522C111.677 21.0236 112.337 20.6774 112.996 20.4137C113.655 20.1334 114.274 19.9933 114.851 19.9933C115.197 19.9933 115.502 20.084 115.765 20.2653C116.046 20.4466 116.26 20.6774 116.408 20.9577C116.557 21.2379 116.631 21.5264 116.631 21.8231C116.631 22.2847 116.441 22.6886 116.062 23.0348C115.699 23.381 115.254 23.6612 114.727 23.8755C113.804 24.2382 112.988 24.6256 112.279 25.0377C111.586 25.4334 111.051 25.7878 110.672 26.101C110.309 26.4142 110.128 26.6368 110.128 26.7686C110.128 26.8676 110.251 27.0242 110.498 27.2385C110.746 27.4528 111.092 27.6918 111.537 27.9556C111.982 28.2193 112.501 28.4913 113.095 28.7716C113.688 29.0353 114.315 29.2826 114.974 29.5134C115.287 29.6288 115.584 29.7772 115.864 29.9585C116.161 30.1234 116.4 30.3129 116.581 30.5272C116.763 30.7415 116.853 30.9888 116.853 31.2691C116.853 31.5988 116.763 31.9202 116.581 32.2334C116.417 32.5467 116.186 32.8022 115.889 33C115.592 33.2143 115.238 33.3215 114.826 33.3215ZM105.503 33.2473C104.926 33.2473 104.49 33.0165 104.193 32.5549C103.896 32.0933 103.698 31.4339 103.599 30.5767C103.517 29.703 103.476 28.6562 103.476 27.4363C103.476 27.0242 103.492 26.5379 103.525 25.9774C103.575 25.4169 103.624 24.8399 103.674 24.2464C103.723 23.653 103.748 23.1172 103.748 22.6391C103.748 22.5073 103.74 22.3671 103.723 22.2188C103.723 22.0539 103.723 21.8973 103.723 21.7489C103.723 21.3533 103.83 21.0236 104.045 20.7598C104.259 20.4961 104.523 20.3065 104.836 20.1911C105.149 20.0592 105.446 19.9933 105.726 19.9933C106.336 19.9933 106.781 20.2158 107.061 20.6609C107.342 21.106 107.482 21.6748 107.482 22.3671C107.482 22.9276 107.449 23.5128 107.383 24.1228C107.317 24.7327 107.251 25.3262 107.185 25.9032C107.135 26.4637 107.111 26.9747 107.111 27.4363C107.111 28.2441 107.144 28.9199 107.21 29.464C107.292 29.9915 107.366 30.4366 107.432 30.7992C107.498 31.1619 107.531 31.4834 107.531 31.7636C107.531 32.0933 107.424 32.3736 107.21 32.6044C107.012 32.8187 106.756 32.9753 106.443 33.0742C106.146 33.1896 105.833 33.2473 105.503 33.2473ZM123.011 33.2473C122.153 33.2473 121.403 33.0907 120.76 32.7775C120.117 32.4478 119.615 31.9944 119.252 31.4174C118.889 30.824 118.708 30.1398 118.708 29.365C118.708 28.5243 118.848 27.6671 119.128 26.7934C119.409 25.9197 119.796 25.0872 120.291 24.2959C120.785 23.5046 121.354 22.7957 121.997 22.1693C122.656 21.5429 123.357 21.0483 124.099 20.6857C124.84 20.323 125.591 20.1416 126.349 20.1416C126.959 20.1416 127.478 20.3395 127.907 20.7351C128.335 21.1308 128.55 21.6912 128.55 22.4166C128.55 22.6803 128.475 22.8864 128.327 23.0348C128.179 23.1831 127.989 23.2821 127.758 23.3315C126.703 23.4964 125.772 23.9085 124.964 24.5679C124.156 25.2108 123.522 25.9856 123.06 26.8923C122.598 27.7825 122.368 28.7139 122.368 29.6865C122.368 29.9667 122.384 30.2305 122.417 30.4778C122.467 30.7086 122.557 31.0053 122.689 31.368L121.008 28.8458C121.403 29.1425 121.75 29.3486 122.046 29.464C122.359 29.5629 122.722 29.6123 123.134 29.6123C123.975 29.6123 124.758 29.093 125.483 28.0545C126.209 26.9994 126.728 25.4581 127.041 23.4304C127.091 23.0348 127.264 22.7298 127.56 22.5155C127.857 22.2847 128.195 22.1693 128.574 22.1693C129.217 22.1693 129.761 22.3424 130.206 22.6886C130.651 23.0348 130.965 23.4634 131.146 23.9744C131.426 24.7327 131.682 25.4416 131.913 26.101C132.16 26.7439 132.448 27.3703 132.778 27.9803C133.124 28.5738 133.586 29.1919 134.163 29.8349C134.377 30.0821 134.484 30.3954 134.484 30.7745C134.501 31.1372 134.435 31.5081 134.286 31.8873C134.138 32.2499 133.915 32.5549 133.619 32.8022C133.339 33.0495 132.992 33.1731 132.58 33.1731C132.283 33.1731 132.044 33.1154 131.863 33C131.682 32.9011 131.525 32.7692 131.393 32.6044C131.031 32.1757 130.709 31.7554 130.429 31.3433C130.149 30.9146 129.885 30.4695 129.638 30.008C129.407 29.5299 129.184 29.0024 128.97 28.4254C128.772 27.8319 128.566 27.1478 128.352 26.373L129.662 26.2741C129.234 28.0215 128.657 29.4063 127.931 30.4283C127.223 31.4504 126.44 32.1757 125.582 32.6044C124.742 33.033 123.884 33.2473 123.011 33.2473ZM139.519 33.272C138.975 33.272 138.497 33.0989 138.085 32.7527C137.673 32.4065 137.343 31.9285 137.096 31.3185C136.865 30.6921 136.75 29.9585 136.75 29.1178C136.75 28.0957 136.906 27.2962 137.22 26.7192C137.549 26.1257 137.879 25.7136 138.209 25.4828C138.373 25.3509 138.571 25.2603 138.802 25.2108C139.033 25.1449 139.28 25.1119 139.544 25.1119C140.747 25.1119 141.992 25.0542 143.278 24.9388C144.564 24.8234 145.734 24.5596 146.789 24.1475L147.951 27.1148C147.127 27.4775 146.229 27.7577 145.256 27.9556C144.3 28.1369 143.311 28.2605 142.289 28.3265C141.283 28.3759 140.302 28.4007 139.346 28.4007L137.244 27.733C137.261 26.7604 137.277 25.7795 137.294 24.7904C137.327 23.7848 137.343 22.8617 137.343 22.0209C137.343 21.4769 137.442 21.0071 137.64 20.6115C137.854 20.2158 138.2 20.018 138.678 20.018C139.486 20.018 140.088 20.2653 140.484 20.7598C140.879 21.2379 141.077 21.9056 141.077 22.7628C141.077 23.1584 141.061 23.6035 141.028 24.0981C140.995 24.5761 140.962 25.0707 140.929 25.5817C140.912 26.0928 140.887 26.5791 140.854 27.0406C140.822 27.4857 140.805 27.8649 140.805 28.1781C140.805 28.7551 140.805 29.3321 140.805 29.9091C140.805 30.4695 140.805 31.1042 140.805 31.8131C140.805 32.2252 140.681 32.5714 140.434 32.8516C140.203 33.1319 139.898 33.272 139.519 33.272ZM148.199 33.272C147.572 33.272 147.078 33.0247 146.715 32.5302C146.369 32.0356 146.113 31.3762 145.948 30.552C145.8 29.7277 145.726 28.8128 145.726 27.8072C145.726 26.2246 145.767 24.9388 145.849 23.9497C145.932 22.9606 146.023 22.1858 146.121 21.6253C146.22 21.1472 146.468 20.7516 146.863 20.4384C147.259 20.1252 147.696 19.9686 148.174 19.9686C148.635 19.9686 149.023 20.1416 149.336 20.4878C149.666 20.8175 149.831 21.2049 149.831 21.65C149.831 22.2435 149.765 22.9194 149.633 23.6777C149.517 24.4195 149.46 25.318 149.46 26.373C149.46 27.1808 149.501 27.8979 149.583 28.5243C149.682 29.1507 149.773 29.7112 149.855 30.2058C149.938 30.6838 149.979 31.1454 149.979 31.5905C149.979 32.0356 149.814 32.4313 149.484 32.7775C149.155 33.1072 148.726 33.272 148.199 33.272ZM156.914 33.2473C156.056 33.2473 155.306 33.0907 154.663 32.7775C154.02 32.4478 153.518 31.9944 153.155 31.4174C152.792 30.824 152.611 30.1398 152.611 29.365C152.611 28.5243 152.751 27.6671 153.031 26.7934C153.312 25.9197 153.699 25.0872 154.193 24.2959C154.688 23.5046 155.257 22.7957 155.9 22.1693C156.559 21.5429 157.26 21.0483 158.002 20.6857C158.743 20.323 159.493 20.1416 160.252 20.1416C160.862 20.1416 161.381 20.3395 161.81 20.7351C162.238 21.1308 162.452 21.6912 162.452 22.4166C162.452 22.6803 162.378 22.8864 162.23 23.0348C162.082 23.1831 161.892 23.2821 161.661 23.3315C160.606 23.4964 159.675 23.9085 158.867 24.5679C158.059 25.2108 157.425 25.9856 156.963 26.8923C156.501 27.7825 156.271 28.7139 156.271 29.6865C156.271 29.9667 156.287 30.2305 156.32 30.4778C156.369 30.7086 156.46 31.0053 156.592 31.368L154.911 28.8458C155.306 29.1425 155.652 29.3486 155.949 29.464C156.262 29.5629 156.625 29.6123 157.037 29.6123C157.878 29.6123 158.661 29.093 159.386 28.0545C160.112 26.9994 160.631 25.4581 160.944 23.4304C160.994 23.0348 161.167 22.7298 161.463 22.5155C161.76 22.2847 162.098 22.1693 162.477 22.1693C163.12 22.1693 163.664 22.3424 164.109 22.6886C164.554 23.0348 164.868 23.4634 165.049 23.9744C165.329 24.7327 165.585 25.4416 165.815 26.101C166.063 26.7439 166.351 27.3703 166.681 27.9803C167.027 28.5738 167.489 29.1919 168.066 29.8349C168.28 30.0821 168.387 30.3954 168.387 30.7745C168.404 31.1372 168.338 31.5081 168.189 31.8873C168.041 32.2499 167.818 32.5549 167.522 32.8022C167.241 33.0495 166.895 33.1731 166.483 33.1731C166.186 33.1731 165.947 33.1154 165.766 33C165.585 32.9011 165.428 32.7692 165.296 32.6044C164.933 32.1757 164.612 31.7554 164.332 31.3433C164.052 30.9146 163.788 30.4695 163.541 30.008C163.31 29.5299 163.087 29.0024 162.873 28.4254C162.675 27.8319 162.469 27.1478 162.255 26.373L163.565 26.2741C163.252 27.5929 162.848 28.6974 162.354 29.5876C161.859 30.4778 161.315 31.1949 160.722 31.7389C160.145 32.2829 159.526 32.6703 158.867 32.9011C158.224 33.1319 157.573 33.2473 156.914 33.2473Z" fill="white"/>
</g>
<defs>
<filter id="filter0_di_42_46" x="0.341783" y="0.578163" width="207.789" height="52.7892" filterUnits="userSpaceOnUse" color-interpolation-filters="sRGB">
<feFlood flood-opacity="0" result="BackgroundImageFix"/>
<feColorMatrix in="SourceAlpha" type="matrix" values="0 0 0 0 0 0 0 0 0 0 0 0 0 0 0 0 0 0 127 0" result="hardAlpha"/>
<feMorphology radius="0.61819" operator="dilate" in="SourceAlpha" result="effect1_dropShadow_42_46"/>
<feOffset dx="1.23638" dy="2.47276"/>
<feGaussianBlur stdDeviation="1.6382"/>
<feComposite in2="hardAlpha" operator="out"/>
<feColorMatrix type="matrix" values="0 0 0 0 0.0429688 0 0 0 0 0.437654 0 0 0 0 0.6875 0 0 0 0.5 0"/>
<feBlend mode="normal" in2="BackgroundImageFix" result="effect1_dropShadow_42_46"/>
<feBlend mode="normal" in="SourceGraphic" in2="effect1_dropShadow_42_46" result="shape"/>
<feColorMatrix in="SourceAlpha" type="matrix" values="0 0 0 0 0 0 0 0 0 0 0 0 0 0 0 0 0 0 127 0" result="hardAlpha"/>
<feMorphology radius="1.85457" operator="erode" in="SourceAlpha" result="effect2_innerShadow_42_46"/>
<feOffset dy="4.94552"/>
<feGaussianBlur stdDeviation="2.90549"/>
<feComposite in2="hardAlpha" operator="arithmetic" k2="-1" k3="1"/>
<feColorMatrix type="matrix" values="0 0 0 0 1 0 0 0 0 1 0 0 0 0 1 0 0 0 0.75 0"/>
<feBlend mode="normal" in2="shape" result="effect2_innerShadow_42_46"/>
</filter>
<linearGradient id="paint0_linear_42_46" x1="103" y1="47" x2="103" y2="2" gradientUnits="userSpaceOnUse">
<stop stop-color="#A5DBFD"/>
<stop offset="1" stop-color="#2592D7"/>
</linearGradient>
<radialGradient id="paint1_radial_42_46" cx="0" cy="0" r="1" gradientUnits="userSpaceOnUse" gradientTransform="translate(22.6653 14.7016) scale(7.53138 6.30116)">
<stop stop-color="white"/>
<stop offset="0.87" stop-color="white" stop-opacity="0.95"/>
<stop offset="1" stop-color="white" stop-opacity="0"/>
</radialGradient>
</defs>
</svg>
