<svg width="189" height="52" viewBox="0 0 189 52" fill="none" xmlns="http://www.w3.org/2000/svg">
<g filter="url(#filter0_di_42_16)">
<rect x="3" y="2" width="180" height="42.891" rx="21.4455" fill="#B6FF9B"/>
<rect x="3" y="2" width="180" height="42.891" rx="21.4455" fill="url(#paint0_linear_42_16)"/>
<rect x="3" y="2" width="180" height="42.891" rx="21.4455" fill="url(#paint1_radial_42_16)" fill-opacity="0.8"/>
<rect x="3.92729" y="2.92729" width="178.145" height="41.0365" rx="20.5182" stroke="#4AB623" stroke-width="1.85457"/>
<path d="M23.5836 32.1928C22.034 32.1928 20.7234 31.8631 19.6519 31.2037C18.5968 30.5278 17.789 29.6129 17.2286 28.459C16.6846 27.305 16.4125 25.9862 16.4125 24.5025C16.4125 23.1673 16.6598 21.8979 17.1544 20.6945C17.6489 19.4746 18.3248 18.3948 19.182 17.4552C20.0393 16.499 21.0201 15.749 22.1246 15.205C23.2291 14.6445 24.3996 14.3642 25.6359 14.3642C26.8888 14.3642 27.7872 14.628 28.3312 15.1555C28.8753 15.6666 29.1473 16.3837 29.1473 17.3068C29.1473 17.8179 29.0648 18.2959 28.9 18.741C28.7516 19.1861 28.5208 19.5488 28.2076 19.829C27.8944 20.1093 27.4988 20.2494 27.0207 20.2494C26.7899 20.2494 26.5921 20.1999 26.4272 20.101C26.2624 20.0021 26.1387 19.8702 26.0563 19.7054C25.9904 19.5241 25.9574 19.3345 25.9574 19.1367C25.9574 18.9718 25.9327 18.8399 25.8832 18.741C25.8338 18.6256 25.7431 18.5432 25.6112 18.4937C25.4793 18.4278 25.2733 18.3948 24.993 18.3948C24.2842 18.3948 23.633 18.5679 23.0395 18.9141C22.4626 19.2603 21.9598 19.7301 21.5312 20.3236C21.119 20.9006 20.7893 21.5517 20.5421 22.2771C20.3113 23.0024 20.1959 23.7442 20.1959 24.5025C20.1959 25.8049 20.5173 26.8105 21.1602 27.5193C21.8032 28.2117 22.6769 28.5579 23.7814 28.5579C24.3583 28.5579 24.8364 28.5002 25.2156 28.3848C25.5947 28.2694 25.8997 28.1293 26.1305 27.9644C26.3613 27.7831 26.5673 27.61 26.7487 27.4451C26.9465 27.2803 27.1443 27.1402 27.3421 27.0248C27.5565 26.8929 27.812 26.8269 28.1087 26.8269C28.5703 26.8269 28.9 26.9588 29.0978 27.2226C29.3121 27.4863 29.4193 27.849 29.4193 28.3106C29.4193 28.7722 29.2874 29.2338 29.0236 29.6953C28.7763 30.1569 28.3972 30.5773 27.8862 30.9565C27.3916 31.3356 26.7817 31.6406 26.0563 31.8714C25.331 32.0857 24.5067 32.1928 23.5836 32.1928ZM31.9073 23.3156C31.3962 23.3156 30.9429 23.1343 30.5473 22.7716C30.1681 22.4089 29.9785 21.9721 29.9785 21.4611C29.9785 21.0819 30.0774 20.7687 30.2753 20.5214C30.4896 20.2741 30.7945 20.0763 31.1902 19.9279C31.7507 19.6972 32.5584 19.4828 33.6135 19.285C34.685 19.0872 36.0286 18.9883 37.6441 18.9883C38.5673 18.9883 39.3997 19.013 40.1416 19.0625C40.8834 19.1119 41.6747 19.1944 42.5154 19.3098C43.0924 19.3922 43.5457 19.5735 43.8754 19.8538C44.2216 20.134 44.3947 20.5049 44.3947 20.9665C44.3947 21.2632 44.3041 21.56 44.1227 21.8567C43.9579 22.1369 43.7271 22.3677 43.4303 22.5491C43.1336 22.7139 42.7957 22.7963 42.4165 22.7963C42.1363 22.7963 41.7324 22.7799 41.2049 22.7469C40.6938 22.6974 40.1333 22.648 39.5234 22.5985C38.9134 22.5491 38.3117 22.5243 37.7183 22.5243C36.5973 22.5243 35.6824 22.5903 34.9735 22.7222C34.2646 22.8376 33.6794 22.9694 33.2178 23.1178C32.7563 23.2497 32.3194 23.3156 31.9073 23.3156ZM37.3474 32.2423C36.9352 32.2423 36.5973 32.1434 36.3335 31.9456C36.0862 31.7642 35.8555 31.4675 35.6412 31.0554C35.4598 30.6762 35.3115 30.1817 35.1961 29.5717C35.0971 28.9618 35.023 28.3024 34.9735 27.5935C34.9405 26.8846 34.9241 26.1923 34.9241 25.5164C34.9241 24.4449 34.8993 23.5464 34.8499 22.8211C34.8004 22.0792 34.7757 21.4775 34.7757 21.016L38.5096 20.8181C38.5096 20.9335 38.5178 21.1973 38.5343 21.6094C38.5508 22.0215 38.5673 22.5079 38.5837 23.0683C38.6002 23.6288 38.6167 24.2141 38.6332 24.824C38.6497 25.4175 38.6579 25.9615 38.6579 26.456C38.6579 27.0165 38.6909 27.5111 38.7568 27.9397C38.8228 28.3518 38.8887 28.7145 38.9547 29.0277C39.0371 29.3409 39.1113 29.6212 39.1772 29.8684C39.2431 30.0992 39.2761 30.3218 39.2761 30.5361C39.2761 30.8658 39.169 31.1625 38.9547 31.4263C38.7568 31.6736 38.5096 31.8714 38.2128 32.0197C37.9326 32.1681 37.6441 32.2423 37.3474 32.2423ZM48.9116 32.1928C48.0543 32.1928 47.3043 32.0362 46.6614 31.723C46.0184 31.3933 45.5156 30.94 45.153 30.363C44.7903 29.7695 44.609 29.0854 44.609 28.3106C44.609 27.4699 44.7491 26.6126 45.0293 25.7389C45.3096 24.8652 45.697 24.0327 46.1915 23.2414C46.6861 22.4502 47.2548 21.7413 47.8977 21.1149C48.5571 20.4884 49.2578 19.9939 49.9996 19.6312C50.7414 19.2685 51.4915 19.0872 52.2498 19.0872C52.8597 19.0872 53.379 19.285 53.8076 19.6807C54.2362 20.0763 54.4505 20.6368 54.4505 21.3621C54.4505 21.6259 54.3764 21.832 54.228 21.9803C54.0796 22.1287 53.8901 22.2276 53.6593 22.2771C52.6042 22.4419 51.6728 22.854 50.865 23.5134C50.0573 24.1564 49.4226 24.9312 48.961 25.8378C48.4994 26.728 48.2686 27.6594 48.2686 28.6321C48.2686 28.9123 48.2851 29.1761 48.3181 29.4233C48.3676 29.6541 48.4582 29.9509 48.5901 30.3135L46.9086 27.7913C47.3043 28.0881 47.6505 28.2941 47.9472 28.4095C48.2604 28.5084 48.6231 28.5579 49.0352 28.5579C49.8759 28.5579 50.659 28.0386 51.3843 27C52.1097 25.945 52.6289 24.4036 52.9422 22.376C52.9916 21.9803 53.1647 21.6754 53.4614 21.4611C53.7582 21.2303 54.0961 21.1149 54.4753 21.1149C55.1182 21.1149 55.6622 21.288 56.1073 21.6341C56.5524 21.9803 56.8656 22.4089 57.0469 22.92C57.3272 23.6783 57.5827 24.3872 57.8135 25.0466C58.0608 25.6895 58.3493 26.3159 58.679 26.9259C59.0252 27.5193 59.4867 28.1375 60.0637 28.7804C60.278 29.0277 60.3852 29.3409 60.3852 29.7201C60.4017 30.0827 60.3357 30.4537 60.1874 30.8328C60.039 31.1955 59.8164 31.5005 59.5197 31.7477C59.2395 31.995 58.8933 32.1186 58.4811 32.1186C58.1844 32.1186 57.9454 32.061 57.764 31.9456C57.5827 31.8466 57.4261 31.7148 57.2942 31.5499C56.9316 31.1213 56.6101 30.7009 56.3298 30.2888C56.0496 29.8602 55.7858 29.4151 55.5386 28.9535C55.3078 28.4755 55.0852 27.9479 54.8709 27.371C54.6731 26.7775 54.467 26.0934 54.2527 25.3186L55.5633 25.2196C55.1347 26.9671 54.5577 28.3518 53.8324 29.3739C53.1235 30.396 52.3405 31.1213 51.4832 31.5499C50.6425 31.9785 49.7853 32.1928 48.9116 32.1928ZM62.0189 23.3156C61.5079 23.3156 61.0546 23.1343 60.6589 22.7716C60.2798 22.4089 60.0902 21.9721 60.0902 21.4611C60.0902 21.0819 60.1891 20.7687 60.3869 20.5214C60.6012 20.2741 60.9062 20.0763 61.3018 19.9279C61.8623 19.6972 62.6701 19.4828 63.7251 19.285C64.7967 19.0872 66.1402 18.9883 67.7557 18.9883C68.6789 18.9883 69.5114 19.013 70.2532 19.0625C70.9951 19.1119 71.7863 19.1944 72.6271 19.3098C73.204 19.3922 73.6574 19.5735 73.9871 19.8538C74.3333 20.134 74.5064 20.5049 74.5064 20.9665C74.5064 21.2632 74.4157 21.56 74.2344 21.8567C74.0695 22.1369 73.8387 22.3677 73.542 22.5491C73.2453 22.7139 72.9073 22.7963 72.5282 22.7963C72.2479 22.7963 71.844 22.7799 71.3165 22.7469C70.8055 22.6974 70.245 22.648 69.635 22.5985C69.0251 22.5491 68.4234 22.5243 67.8299 22.5243C66.7089 22.5243 65.794 22.5903 65.0852 22.7222C64.3763 22.8376 63.7911 22.9694 63.3295 23.1178C62.8679 23.2497 62.4311 23.3156 62.0189 23.3156ZM67.459 32.2423C67.0469 32.2423 66.7089 32.1434 66.4452 31.9456C66.1979 31.7642 65.9671 31.4675 65.7528 31.0554C65.5715 30.6762 65.4231 30.1817 65.3077 29.5717C65.2088 28.9618 65.1346 28.3024 65.0852 27.5935C65.0522 26.8846 65.0357 26.1923 65.0357 25.5164C65.0357 24.4449 65.011 23.5464 64.9615 22.8211C64.9121 22.0792 64.8873 21.4775 64.8873 21.016L68.6212 20.8181C68.6212 20.9335 68.6294 21.1973 68.6459 21.6094C68.6624 22.0215 68.6789 22.5079 68.6954 23.0683C68.7119 23.6288 68.7284 24.2141 68.7448 24.824C68.7613 25.4175 68.7696 25.9615 68.7696 26.456C68.7696 27.0165 68.8025 27.5111 68.8685 27.9397C68.9344 28.3518 69.0004 28.7145 69.0663 29.0277C69.1487 29.3409 69.2229 29.6212 69.2888 29.8684C69.3548 30.0992 69.3878 30.3218 69.3878 30.5361C69.3878 30.8658 69.2806 31.1625 69.0663 31.4263C68.8685 31.6736 68.6212 31.8714 68.3245 32.0197C68.0442 32.1681 67.7557 32.2423 67.459 32.2423ZM79.5763 32.2423C78.9169 32.2423 78.3646 32.1104 77.9196 31.8466C77.4909 31.5664 77.1448 31.1955 76.881 30.7339C76.6337 30.2558 76.4524 29.7283 76.337 29.1513C76.2216 28.5579 76.1639 27.9479 76.1639 27.3215C76.1639 26.8105 76.1804 26.25 76.2133 25.64C76.2628 25.0136 76.3205 24.3954 76.3864 23.7854C76.4524 23.1755 76.5183 22.6068 76.5843 22.0792C76.6502 21.5517 76.7161 21.1314 76.7821 20.8181C76.881 20.2412 77.0623 19.8125 77.3261 19.5323C77.5899 19.2356 77.8948 19.0872 78.241 19.0872C78.6202 19.0872 78.9746 19.1779 79.3043 19.3592C79.6505 19.5241 79.9307 19.7466 80.145 20.0269C80.3593 20.3071 80.4665 20.6203 80.4665 20.9665C80.4665 21.2138 80.4335 21.56 80.3676 22.0051C80.3016 22.4337 80.2275 22.9117 80.145 23.4393C80.0626 23.9503 79.9884 24.4778 79.9225 25.0218C79.8565 25.5494 79.8236 26.0604 79.8236 26.5549C79.8236 26.8517 79.8318 27.1484 79.8483 27.4451C79.8813 27.7254 79.939 27.9644 80.0214 28.1622C80.1038 28.3601 80.2439 28.459 80.4418 28.459C80.8374 28.459 81.2495 28.1375 81.6781 27.4946C82.1232 26.8517 82.5683 26.0357 83.0134 25.0466C83.3761 24.3047 83.6728 23.5794 83.9036 22.8705C84.1509 22.1617 84.3817 21.527 84.596 20.9665C84.8103 20.3895 85.0493 19.9279 85.3131 19.5818C85.5933 19.2356 85.956 19.0625 86.4011 19.0625C87.077 19.0625 87.5963 19.2521 87.959 19.6312C88.3381 19.9939 88.5607 20.4555 88.6266 21.016C88.709 21.4446 88.7997 21.9803 88.8986 22.6233C89.014 23.2662 89.1376 23.9008 89.2695 24.5273C89.4014 25.1372 89.5168 25.6153 89.6157 25.9615C89.8135 26.7198 90.0361 27.338 90.2834 27.816C90.5306 28.2941 90.7449 28.7145 90.9263 29.0772C91.1076 29.4398 91.1983 29.8107 91.1983 30.1899C91.1983 30.5361 91.1076 30.8575 90.9263 31.1543C90.7449 31.451 90.4977 31.6983 90.1844 31.8961C89.8877 32.0774 89.558 32.1681 89.1953 32.1681C88.7173 32.1681 88.3051 32.0033 87.959 31.6736C87.6293 31.3439 87.3325 30.8658 87.0688 30.2394C86.8215 29.6129 86.5742 28.8628 86.3269 27.9891C86.1786 27.3792 86.0302 26.761 85.8818 26.1346C85.75 25.5081 85.6263 24.8899 85.5109 24.28C85.412 23.6701 85.3213 23.1013 85.2389 22.5738L86.9946 22.3018C86.9122 22.5491 86.7968 22.9035 86.6484 23.3651C86.5165 23.8267 86.3434 24.3624 86.1291 24.9724C85.9148 25.5823 85.684 26.2417 85.4367 26.9506C84.9916 28.1045 84.4476 29.0772 83.8047 29.8684C83.1783 30.6597 82.4942 31.2532 81.7523 31.6488C81.027 32.0445 80.3016 32.2423 79.5763 32.2423ZM99.2201 32.1681C97.8848 32.1681 96.7473 31.9291 95.8076 31.451C94.8845 30.9565 94.1839 30.2888 93.7058 29.4481C93.2277 28.5908 92.9887 27.61 92.9887 26.5055C92.9887 25.4669 93.203 24.5025 93.6316 23.6124C94.0767 22.7222 94.6784 21.9391 95.4367 21.2632C96.2115 20.5873 97.0852 20.0598 98.0579 19.6807C99.047 19.3015 100.102 19.1119 101.223 19.1119C101.734 19.1119 102.179 19.2026 102.558 19.3839C102.937 19.5488 103.234 19.7961 103.448 20.1258C103.663 20.4555 103.77 20.8676 103.77 21.3621C103.77 21.9556 103.646 22.4584 103.399 22.8705C103.152 23.2827 102.806 23.4887 102.36 23.4887C102.13 23.4887 101.965 23.431 101.866 23.3156C101.767 23.2002 101.66 23.0931 101.544 22.9942C101.446 22.8953 101.248 22.8458 100.951 22.8458C100.16 22.8458 99.4508 23.0271 98.8244 23.3898C98.198 23.736 97.7034 24.1976 97.3408 24.7746C96.9781 25.3515 96.7968 25.9697 96.7968 26.6291C96.7968 26.9753 96.8709 27.2885 97.0193 27.5688C97.1677 27.849 97.4149 28.0716 97.7611 28.2364C98.1073 28.3848 98.6019 28.459 99.2448 28.459C99.8877 28.459 100.39 28.3765 100.753 28.2117C101.116 28.0468 101.404 27.8655 101.619 27.6677C101.833 27.4534 102.039 27.2638 102.237 27.0989C102.435 26.9341 102.69 26.8517 103.003 26.8517C103.399 26.8517 103.688 26.9753 103.869 27.2226C104.067 27.4699 104.166 27.849 104.166 28.3601C104.166 29.0854 103.951 29.7366 103.523 30.3135C103.111 30.8905 102.525 31.3439 101.767 31.6736C101.025 32.0033 100.176 32.1681 99.2201 32.1681ZM107.694 23.3156C107.182 23.3156 106.729 23.1343 106.333 22.7716C105.954 22.4089 105.765 21.9721 105.765 21.4611C105.765 21.0819 105.864 20.7687 106.061 20.5214C106.276 20.2741 106.581 20.0763 106.976 19.9279C107.537 19.6972 108.345 19.4828 109.4 19.285C110.471 19.0872 111.815 18.9883 113.43 18.9883C114.353 18.9883 115.186 19.013 115.928 19.0625C116.67 19.1119 117.461 19.1944 118.302 19.3098C118.879 19.3922 119.332 19.5735 119.662 19.8538C120.008 20.134 120.181 20.5049 120.181 20.9665C120.181 21.2632 120.09 21.56 119.909 21.8567C119.744 22.1369 119.513 22.3677 119.217 22.5491C118.92 22.7139 118.582 22.7963 118.203 22.7963C117.922 22.7963 117.519 22.7799 116.991 22.7469C116.48 22.6974 115.92 22.648 115.31 22.5985C114.7 22.5491 114.098 22.5243 113.504 22.5243C112.384 22.5243 111.469 22.5903 110.76 22.7222C110.051 22.8376 109.466 22.9694 109.004 23.1178C108.542 23.2497 108.106 23.3156 107.694 23.3156ZM113.134 32.2423C112.721 32.2423 112.384 32.1434 112.12 31.9456C111.872 31.7642 111.642 31.4675 111.427 31.0554C111.246 30.6762 111.098 30.1817 110.982 29.5717C110.883 28.9618 110.809 28.3024 110.76 27.5935C110.727 26.8846 110.71 26.1923 110.71 25.5164C110.71 24.4449 110.686 23.5464 110.636 22.8211C110.587 22.0792 110.562 21.4775 110.562 21.016L114.296 20.8181C114.296 20.9335 114.304 21.1973 114.321 21.6094C114.337 22.0215 114.353 22.5079 114.37 23.0683C114.386 23.6288 114.403 24.2141 114.419 24.824C114.436 25.4175 114.444 25.9615 114.444 26.456C114.444 27.0165 114.477 27.5111 114.543 27.9397C114.609 28.3518 114.675 28.7145 114.741 29.0277C114.823 29.3409 114.897 29.6212 114.963 29.8684C115.029 30.0992 115.062 30.3218 115.062 30.5361C115.062 30.8658 114.955 31.1625 114.741 31.4263C114.543 31.6736 114.296 31.8714 113.999 32.0197C113.719 32.1681 113.43 32.2423 113.134 32.2423ZM125.251 32.2423C124.591 32.2423 124.039 32.1104 123.594 31.8466C123.166 31.5664 122.819 31.1955 122.556 30.7339C122.308 30.2558 122.127 29.7283 122.012 29.1513C121.896 28.5579 121.838 27.9479 121.838 27.3215C121.838 26.8105 121.855 26.25 121.888 25.64C121.937 25.0136 121.995 24.3954 122.061 23.7854C122.127 23.1755 122.193 22.6068 122.259 22.0792C122.325 21.5517 122.391 21.1314 122.457 20.8181C122.556 20.2412 122.737 19.8125 123.001 19.5323C123.264 19.2356 123.569 19.0872 123.916 19.0872C124.295 19.0872 124.649 19.1779 124.979 19.3592C125.325 19.5241 125.605 19.7466 125.82 20.0269C126.034 20.3071 126.141 20.6203 126.141 20.9665C126.141 21.2138 126.108 21.56 126.042 22.0051C125.976 22.4337 125.902 22.9117 125.82 23.4393C125.737 23.9503 125.663 24.4778 125.597 25.0218C125.531 25.5494 125.498 26.0604 125.498 26.5549C125.498 26.8517 125.506 27.1484 125.523 27.4451C125.556 27.7254 125.614 27.9644 125.696 28.1622C125.778 28.3601 125.919 28.459 126.116 28.459C126.512 28.459 126.924 28.1375 127.353 27.4946C127.798 26.8517 128.243 26.0357 128.688 25.0466C129.051 24.3047 129.347 23.5794 129.578 22.8705C129.825 22.1617 130.056 21.527 130.271 20.9665C130.485 20.3895 130.724 19.9279 130.988 19.5818C131.268 19.2356 131.631 19.0625 132.076 19.0625C132.752 19.0625 133.271 19.2521 133.634 19.6312C134.013 19.9939 134.235 20.4555 134.301 21.016C134.384 21.4446 134.474 21.9803 134.573 22.6233C134.689 23.2662 134.812 23.9008 134.944 24.5273C135.076 25.1372 135.191 25.6153 135.29 25.9615C135.488 26.7198 135.711 27.338 135.958 27.816C136.205 28.2941 136.42 28.7145 136.601 29.0772C136.782 29.4398 136.873 29.8107 136.873 30.1899C136.873 30.5361 136.782 30.8575 136.601 31.1543C136.42 31.451 136.172 31.6983 135.859 31.8961C135.562 32.0774 135.233 32.1681 134.87 32.1681C134.145 32.1681 133.576 31.7972 133.164 31.0554C132.752 30.3135 132.364 29.2915 132.002 27.9891C131.853 27.3792 131.705 26.761 131.556 26.1346C131.425 25.5081 131.301 24.8899 131.186 24.28C131.087 23.6701 130.996 23.1013 130.914 22.5738L132.669 22.3018C132.554 22.6809 132.356 23.2909 132.076 24.1316C131.812 24.9559 131.49 25.8955 131.111 26.9506C130.666 28.1045 130.122 29.0772 129.479 29.8684C128.853 30.6597 128.169 31.2532 127.427 31.6488C126.702 32.0445 125.976 32.2423 125.251 32.2423ZM150.73 32.267C150.219 32.267 149.601 32.1269 148.875 31.8466C148.15 31.5664 147.408 31.212 146.65 30.7834C145.891 30.3383 145.174 29.8684 144.498 29.3739C143.839 28.8793 143.311 28.426 142.916 28.0139C142.586 27.7007 142.322 27.3627 142.125 27C141.943 26.6374 141.853 26.2665 141.853 25.8873C141.853 25.5741 141.918 25.2609 142.05 24.9476C142.182 24.6344 142.397 24.313 142.693 23.9833C142.875 23.769 143.18 23.4557 143.608 23.0436C144.037 22.6315 144.531 22.1946 145.092 21.7331C145.669 21.255 146.279 20.8099 146.922 20.3978C147.581 19.9692 148.241 19.623 148.9 19.3592C149.559 19.079 150.178 18.9388 150.754 18.9388C151.101 18.9388 151.406 19.0295 151.669 19.2108C151.95 19.3922 152.164 19.623 152.312 19.9032C152.461 20.1835 152.535 20.472 152.535 20.7687C152.535 21.2303 152.345 21.6341 151.966 21.9803C151.603 22.3265 151.158 22.6068 150.631 22.8211C149.708 23.1837 148.892 23.5711 148.183 23.9833C147.49 24.3789 146.955 24.7333 146.576 25.0466C146.213 25.3598 146.032 25.5823 146.032 25.7142C146.032 25.8131 146.155 25.9697 146.402 26.184C146.65 26.3983 146.996 26.6374 147.441 26.9011C147.886 27.1649 148.405 27.4369 148.999 27.7171C149.592 27.9809 150.219 28.2282 150.878 28.459C151.191 28.5744 151.488 28.7227 151.768 28.9041C152.065 29.0689 152.304 29.2585 152.485 29.4728C152.667 29.6871 152.757 29.9344 152.757 30.2146C152.757 30.5443 152.667 30.8658 152.485 31.179C152.321 31.4922 152.09 31.7477 151.793 31.9456C151.496 32.1599 151.142 32.267 150.73 32.267ZM141.407 32.1928C140.83 32.1928 140.394 31.962 140.097 31.5005C139.8 31.0389 139.602 30.3795 139.503 29.5223C139.421 28.6485 139.38 27.6017 139.38 26.3818C139.38 25.9697 139.396 25.4834 139.429 24.9229C139.479 24.3624 139.528 23.7854 139.578 23.192C139.627 22.5985 139.652 22.0628 139.652 21.5847C139.652 21.4528 139.644 21.3127 139.627 21.1643C139.627 20.9995 139.627 20.8429 139.627 20.6945C139.627 20.2989 139.734 19.9692 139.949 19.7054C140.163 19.4416 140.427 19.2521 140.74 19.1367C141.053 19.0048 141.35 18.9388 141.63 18.9388C142.24 18.9388 142.685 19.1614 142.965 19.6065C143.246 20.0516 143.386 20.6203 143.386 21.3127C143.386 21.8732 143.353 22.4584 143.287 23.0683C143.221 23.6783 143.155 24.2718 143.089 24.8487C143.039 25.4092 143.015 25.9203 143.015 26.3818C143.015 27.1896 143.048 27.8655 143.114 28.4095C143.196 28.937 143.27 29.3821 143.336 29.7448C143.402 30.1075 143.435 30.4289 143.435 30.7092C143.435 31.0389 143.328 31.3191 143.114 31.5499C142.916 31.7642 142.66 31.9208 142.347 32.0197C142.05 32.1351 141.737 32.1928 141.407 32.1928ZM158.915 32.1928C158.057 32.1928 157.307 32.0362 156.664 31.723C156.021 31.3933 155.519 30.94 155.156 30.363C154.793 29.7695 154.612 29.0854 154.612 28.3106C154.612 27.4699 154.752 26.6126 155.032 25.7389C155.313 24.8652 155.7 24.0327 156.195 23.2414C156.689 22.4502 157.258 21.7413 157.901 21.1149C158.56 20.4884 159.261 19.9939 160.003 19.6312C160.744 19.2685 161.495 19.0872 162.253 19.0872C162.863 19.0872 163.382 19.285 163.811 19.6807C164.239 20.0763 164.454 20.6368 164.454 21.3621C164.454 21.6259 164.379 21.832 164.231 21.9803C164.083 22.1287 163.893 22.2276 163.662 22.2771C162.607 22.4419 161.676 22.854 160.868 23.5134C160.06 24.1564 159.426 24.9312 158.964 25.8378C158.502 26.728 158.272 27.6594 158.272 28.6321C158.272 28.9123 158.288 29.1761 158.321 29.4233C158.371 29.6541 158.461 29.9509 158.593 30.3135L156.912 27.7913C157.307 28.0881 157.654 28.2941 157.95 28.4095C158.263 28.5084 158.626 28.5579 159.038 28.5579C159.879 28.5579 160.662 28.0386 161.387 27C162.113 25.945 162.632 24.4036 162.945 22.376C162.995 21.9803 163.168 21.6754 163.464 21.4611C163.761 21.2303 164.099 21.1149 164.478 21.1149C165.121 21.1149 165.665 21.288 166.11 21.6341C166.555 21.9803 166.869 22.4089 167.05 22.92C167.33 23.6783 167.586 24.3872 167.817 25.0466C168.064 25.6895 168.352 26.3159 168.682 26.9259C169.028 27.5193 169.49 28.1375 170.067 28.7804C170.281 29.0277 170.388 29.3409 170.388 29.7201C170.405 30.0827 170.339 30.4537 170.19 30.8328C170.042 31.1955 169.819 31.5005 169.523 31.7477C169.243 31.995 168.896 32.1186 168.484 32.1186C168.187 32.1186 167.948 32.061 167.767 31.9456C167.586 31.8466 167.429 31.7148 167.297 31.5499C166.935 31.1213 166.613 30.7009 166.333 30.2888C166.053 29.8602 165.789 29.4151 165.542 28.9535C165.311 28.4755 165.088 27.9479 164.874 27.371C164.676 26.7775 164.47 26.0934 164.256 25.3186L165.566 25.2196C165.138 26.9671 164.561 28.3518 163.835 29.3739C163.127 30.396 162.344 31.1213 161.486 31.5499C160.646 31.9785 159.788 32.1928 158.915 32.1928Z" fill="white"/>
</g>
<defs>
<filter id="filter0_di_42_16" x="0.341783" y="0.578163" width="187.789" height="50.6802" filterUnits="userSpaceOnUse" color-interpolation-filters="sRGB">
<feFlood flood-opacity="0" result="BackgroundImageFix"/>
<feColorMatrix in="SourceAlpha" type="matrix" values="0 0 0 0 0 0 0 0 0 0 0 0 0 0 0 0 0 0 127 0" result="hardAlpha"/>
<feMorphology radius="0.61819" operator="dilate" in="SourceAlpha" result="effect1_dropShadow_42_16"/>
<feOffset dx="1.23638" dy="2.47276"/>
<feGaussianBlur stdDeviation="1.6382"/>
<feComposite in2="hardAlpha" operator="out"/>
<feColorMatrix type="matrix" values="0 0 0 0 0.417564 0 0 0 0 0.8 0 0 0 0 0.276667 0 0 0 0.5 0"/>
<feBlend mode="normal" in2="BackgroundImageFix" result="effect1_dropShadow_42_16"/>
<feBlend mode="normal" in="SourceGraphic" in2="effect1_dropShadow_42_16" result="shape"/>
<feColorMatrix in="SourceAlpha" type="matrix" values="0 0 0 0 0 0 0 0 0 0 0 0 0 0 0 0 0 0 127 0" result="hardAlpha"/>
<feMorphology radius="1.85457" operator="erode" in="SourceAlpha" result="effect2_innerShadow_42_16"/>
<feOffset dy="4.94552"/>
<feGaussianBlur stdDeviation="2.90549"/>
<feComposite in2="hardAlpha" operator="arithmetic" k2="-1" k3="1"/>
<feColorMatrix type="matrix" values="0 0 0 0 1 0 0 0 0 1 0 0 0 0 1 0 0 0 0.75 0"/>
<feBlend mode="normal" in2="shape" result="effect2_innerShadow_42_16"/>
</filter>
<linearGradient id="paint0_linear_42_16" x1="93" y1="44.891" x2="93" y2="2" gradientUnits="userSpaceOnUse">
<stop stop-color="#2A8B07" stop-opacity="0"/>
<stop offset="1" stop-color="#8EFF64"/>
</linearGradient>
<radialGradient id="paint1_radial_42_16" cx="0" cy="0" r="1" gradientUnits="userSpaceOnUse" gradientTransform="translate(20.6987 14.1063) scale(6.77824 6.00585)">
<stop stop-color="white"/>
<stop offset="0.87" stop-color="white" stop-opacity="0.95"/>
<stop offset="1" stop-color="white" stop-opacity="0"/>
</radialGradient>
</defs>
</svg>
